<?xml version="1.0" encoding="UTF-8"?>
<svg id="Layer_1" data-name="Layer 1" xmlns="http://www.w3.org/2000/svg" viewBox="0 0 960 1080">
  <defs>
    <style>
      .cls-1 {
        fill: #a34d9d;
      }

      .cls-2 {
        font-family: CreativeVintage-Regular, CreativeVintage;
        font-size: 61.19px;
      }

      .cls-2, .cls-3, .cls-4 {
        fill: #fff;
      }

      .cls-4 {
        font-family: Montserrat-SemiBold, Montserrat;
        font-size: 22.75px;
        font-variation-settings: 'wght' 600;
        font-weight: 600;
      }

      .cls-5 {
        letter-spacing: 0em;
      }

      .cls-6 {
        letter-spacing: -.08em;
      }

      .cls-7 {
        letter-spacing: -.04em;
      }

      .cls-8 {
        letter-spacing: .06em;
      }

      .cls-9 {
        letter-spacing: .02em;
      }

      .cls-10 {
        letter-spacing: .02em;
      }

      .cls-11 {
        letter-spacing: .02em;
      }
    </style>
  </defs>
  <text class="cls-2" transform="translate(455.97 531.33)"><tspan class="cls-10" x="0" y="0">D</tspan><tspan class="cls-6" x="50.23" y="0">r</tspan><tspan class="cls-11" x="81.56" y="0">. No</tspan><tspan class="cls-7" x="209.56" y="0">P</tspan><tspan class="cls-9" x="247.37" y="0">ain</tspan><tspan class="cls-8" x="0" y="59.91">D</tspan><tspan class="cls-10" x="52.68" y="59.91">ent</tspan><tspan class="cls-5" x="160.67" y="59.91">a</tspan><tspan class="cls-10" x="206.32" y="59.91">l</tspan></text>
  <g>
    <g>
      <path class="cls-3" d="M693.32,546.91l-.4.02c-.25-.65-.56-1.04-1.57-1.13v3.63c0,.84.26,1.01.51,1.04l.02.35h-2.62l.02-.35c.24-.04.51-.23.51-.97v-3.7c-1,.09-1.32.48-1.56,1.13l-.4-.02.25-1.5h4.98l.25,1.5Z"/>
      <path class="cls-3" d="M699.03,549.73l-.13-2.97-1.43,4.06h-.9l-1.52-3.62-.11,2.35c.02.73.16.88.46.92l.02.35h-1.83l.02-.35c.23-.04.53-.22.55-.89v.03l.16-3.52c-.08-.25-.28-.32-.48-.34l.03-.35h2.16l1.35,3.22,1.14-3.22h2.34l.03.35c-.22.02-.44.12-.47.46l.16,3.57c.09.53.34.65.55.68l.02.35h-2.62l.02-.35c.22-.03.42-.19.47-.74ZM694.17,549.51v.08-.08ZM700.56,549.43c0,.06,0,.12,0,.18v-.18Z"/>
    </g>
    <path class="cls-3" d="M694.56,557.59c-5.38,0-9.76-4.38-9.76-9.76s4.38-9.76,9.76-9.76,9.76,4.38,9.76,9.76-4.38,9.76-9.76,9.76ZM694.56,539c-4.87,0-8.83,3.96-8.83,8.83s3.96,8.83,8.83,8.83,8.83-3.96,8.83-8.83-3.96-8.83-8.83-8.83Z"/>
  </g>
  <g>
    <circle class="cls-1" cx="286.43" cy="540.5" r="89"/>
    <g>
      <text class="cls-4" transform="translate(178.86 502.55) rotate(-66.38)"><tspan x="0" y="0">P</tspan></text>
      <text class="cls-4" transform="translate(184.76 488.75) rotate(-58.69)"><tspan x="0" y="0">A</tspan></text>
      <text class="cls-4" transform="translate(193.62 474.64) rotate(-52.77)"><tspan x="0" y="0">I</tspan></text>
      <text class="cls-4" transform="translate(197.51 468.98) rotate(-46.55)"><tspan x="0" y="0">N</tspan></text>
      <text class="cls-4" transform="translate(209.91 456.04) rotate(-38.56)"><tspan x="0" y="0">F</tspan></text>
      <text class="cls-4" transform="translate(220.81 447.22) rotate(-31)"><tspan x="0" y="0">R</tspan></text>
      <text class="cls-4" transform="translate(234.65 438.92) rotate(-23.2)"><tspan x="0" y="0">E</tspan></text>
      <text class="cls-4" transform="translate(248.19 433.08) rotate(-15.73)"><tspan x="0" y="0">E</tspan></text>
      <text class="cls-4" transform="translate(262.58 429.22) rotate(-10.45)"><tspan x="0" y="0"> </tspan></text>
      <text class="cls-4" transform="translate(268.56 428.12) rotate(-7.38)"><tspan x="0" y="0"> </tspan></text>
      <text class="cls-4" transform="translate(274.45 427.18) rotate(-2.55)"><tspan x="0" y="0">T</tspan></text>
      <text class="cls-4" transform="translate(287.68 426.47) rotate(4.75)"><tspan x="0" y="0">R</tspan></text>
      <text class="cls-4" transform="translate(303.77 427.82) rotate(12.53)"><tspan x="0" y="0">E</tspan></text>
      <text class="cls-4" transform="translate(318.17 430.92) rotate(20.45)"><tspan x="0" y="0">A</tspan></text>
      <text class="cls-4" transform="translate(332.96 436.46) rotate(27.59)"><tspan x="0" y="0">T</tspan></text>
      <text class="cls-4" transform="translate(344.8 442.26) rotate(36.22)"><tspan x="0" y="0">M</tspan></text>
      <text class="cls-4" transform="translate(361.75 454.94) rotate(45.19)"><tspan x="0" y="0">E</tspan></text>
      <text class="cls-4" transform="translate(372.23 465.28) rotate(53.35)"><tspan x="0" y="0">N</tspan></text>
      <text class="cls-4" transform="translate(382.83 479.73) rotate(61.17)"><tspan x="0" y="0">T</tspan></text>
      <text class="cls-4" transform="translate(389.19 491.18) rotate(67.94)"><tspan x="0" y="0">S</tspan></text>
    </g>
    <g>
      <text class="cls-4" transform="translate(158.1 580.02) rotate(68.61)"><tspan x="0" y="0">P</tspan></text>
      <text class="cls-4" transform="translate(164.6 595.92) rotate(63.24)"><tspan x="0" y="0">I</tspan></text>
      <text class="cls-4" transform="translate(168.14 603.32) rotate(57.82)"><tspan x="0" y="0">C</tspan></text>
      <text class="cls-4" transform="translate(177.91 618.49) rotate(50.72)"><tspan x="0" y="0">T</tspan></text>
      <text class="cls-4" transform="translate(187.45 630.22) rotate(43.43)"><tspan x="0" y="0">U</tspan></text>
      <text class="cls-4" transform="translate(201.55 643.38) rotate(35.54)"><tspan x="0" y="0">R</tspan></text>
      <text class="cls-4" transform="translate(216.17 653.67) rotate(28.23)"><tspan x="0" y="0">E</tspan></text>
      <text class="cls-4" transform="translate(230.43 661.07) rotate(23.28)"><tspan x="0" y="0"> </tspan></text>
      <text class="cls-4" transform="translate(238.8 664.8) rotate(17.16)"><tspan x="0" y="0">P</tspan></text>
      <text class="cls-4" transform="translate(255.55 669.87) rotate(9.94)"><tspan x="0" y="0">E</tspan></text>
      <text class="cls-4" transform="translate(271.8 672.67) rotate(2.65)"><tspan x="0" y="0">R</tspan></text>
      <text class="cls-4" transform="translate(289.6 673.36) rotate(-4.37)"><tspan x="0" y="0">F</tspan></text>
      <text class="cls-4" transform="translate(305.18 672.13) rotate(-11.17)"><tspan x="0" y="0">E</tspan></text>
      <text class="cls-4" transform="translate(321.35 668.89) rotate(-18.47)"><tspan x="0" y="0">C</tspan></text>
      <text class="cls-4" transform="translate(339.35 662.59) rotate(-26.08)"><tspan x="0" y="0">T</tspan></text>
      <text class="cls-4" transform="translate(352.24 656.08) rotate(-30.66)"><tspan x="0" y="0"> </tspan></text>
      <text class="cls-4" transform="translate(360.05 651.52) rotate(-36.21)"><tspan x="0" y="0">S</tspan></text>
      <text class="cls-4" transform="translate(372.85 642.36) rotate(-44.43)"><tspan x="0" y="0">M</tspan></text>
      <text class="cls-4" transform="translate(388.82 626.03) rotate(-51.04)"><tspan x="0" y="0">I</tspan></text>
      <text class="cls-4" transform="translate(393.96 619.82) rotate(-55.81)"><tspan x="0" y="0">L</tspan></text>
      <text class="cls-4" transform="translate(402.24 607.62) rotate(-62.42)"><tspan x="0" y="0">E</tspan></text>
      <text class="cls-4" transform="translate(409.75 593.02) rotate(-69.25)"><tspan x="0" y="0">S</tspan></text>
    </g>
    <path class="cls-3" d="M286.43,686.5c-36.55,0-71.53-13.57-98.48-38.22-26.78-24.49-43.42-57.78-46.85-93.76-.04-.39.25-.74.64-.78.39-.04.74.25.78.64,3.4,35.62,19.87,68.59,46.39,92.84,26.69,24.4,61.33,37.84,97.52,37.84s70.83-13.44,97.52-37.84c26.52-24.25,43-57.22,46.39-92.84.04-.39.38-.69.78-.64.39.04.68.39.64.78-3.43,35.97-20.07,69.27-46.85,93.76-26.96,24.64-61.93,38.22-98.48,38.22Z"/>
    <path class="cls-3" d="M286.43,643.96c-25.18,0-49.44-9.15-68.32-25.77-18.71-16.47-30.85-39.07-34.19-63.64-.05-.39.22-.75.61-.8.39-.06.75.22.8.61,3.29,24.23,15.26,46.52,33.71,62.76,18.62,16.39,42.55,25.41,67.38,25.41s48.76-9.03,67.38-25.41c18.45-16.24,30.42-38.53,33.71-62.76.05-.39.41-.66.8-.61.39.05.66.41.61.8-3.34,24.57-15.48,47.17-34.19,63.64-18.88,16.62-43.14,25.77-68.32,25.77Z"/>
    <path class="cls-3" d="M388.23,527.26c-.35,0-.66-.26-.71-.62-3.29-24.23-15.26-46.52-33.71-62.76-18.62-16.39-42.55-25.41-67.38-25.41s-48.76,9.03-67.38,25.41c-18.45,16.24-30.42,38.53-33.71,62.76-.05.39-.41.67-.8.61-.39-.05-.66-.41-.61-.8,3.34-24.57,15.48-47.17,34.19-63.64,18.88-16.62,43.14-25.77,68.32-25.77s49.44,9.15,68.32,25.77c18.71,16.47,30.85,39.07,34.19,63.64.05.39-.22.75-.61.8-.03,0-.07,0-.1,0Z"/>
    <path class="cls-3" d="M431.05,527.26c-.36,0-.67-.28-.71-.65-3.4-35.62-19.87-68.59-46.39-92.84-26.69-24.4-61.33-37.84-97.52-37.84s-70.83,13.44-97.52,37.84c-26.52,24.25-43,57.22-46.39,92.84-.04.39-.38.68-.78.64-.39-.04-.68-.39-.64-.78,3.43-35.97,20.07-69.27,46.85-93.76,26.96-24.64,61.93-38.22,98.48-38.22s71.53,13.57,98.48,38.22c26.78,24.49,43.42,57.78,46.85,93.76.04.39-.25.74-.64.78-.02,0-.05,0-.07,0Z"/>
    <g>
      <path class="cls-3" d="M410.01,531.59c0,6.35-5.15,11.49-11.49,11.49,6.35,0,11.49,5.15,11.49,11.49,0-6.35,5.15-11.49,11.49-11.49-6.35,0-11.49-5.15-11.49-11.49Z"/>
      <path class="cls-3" d="M162.85,531.59c0,6.35-5.15,11.49-11.49,11.49,6.35,0,11.49,5.15,11.49,11.49,0-6.35,5.15-11.49,11.49-11.49-6.35,0-11.49-5.15-11.49-11.49Z"/>
    </g>
    <g>
      <path class="cls-3" d="M322.15,470.39c0,5.75-4.66,10.41-10.41,10.41,5.75,0,10.41,4.66,10.41,10.41,0-5.75,4.66-10.41,10.41-10.41-5.75,0-10.41-4.66-10.41-10.41Z"/>
      <path class="cls-3" d="M251.68,592.82c0,3.87-3.14,7.01-7.01,7.01,3.87,0,7.01,3.14,7.01,7.01,0-3.87,3.14-7.01,7.01-7.01-3.87,0-7.01-3.14-7.01-7.01Z"/>
      <path class="cls-3" d="M259.96,604.54c0,2.46-1.99,4.45-4.45,4.45,2.46,0,4.45,1.99,4.45,4.45,0-2.46,1.99-4.45,4.45-4.45-2.46,0-4.45-1.99-4.45-4.45Z"/>
      <path class="cls-3" d="M316.93,513.72c.36-1.02.74-2.07,1.09-3.11,1.71-5.07,2.33-10.42,1.71-14.69-.83-5.71-3.83-9.66-8.68-11.43-.33-.12-.66-.23-1-.32-4.08-1.16-8.78-.55-12.9,1.68-.63.34-1.25.72-1.84,1.08-1.37.83-2.65,1.62-4.1,2.02-3.23.9-6.48-.23-9.92-1.43-.55-.19-1.11-.39-1.67-.57-3.07-1.78-6.46-3-9.98-3.27-4.58-.36-9.39,1-12.75,4.14-3.08,2.88-4.75,7.05-5.12,11.24-.37,4.19.47,8.42,1.83,12.41,1.89,5.5,4.8,10.76,5.37,16.55.59,5.95-1.34,11.81-2.63,17.65-3.23,14.68-2.34,30.44,3.79,44.17,1.94,4.34,4.67,8.73,9.05,10.59,1.23.52,2.71.8,3.83.08,1.47-.94,1.56-3.03,1.32-4.75-.42-2.88-1.34-5.66-2-8.49-3.56-15.21.82-32.05,11.34-43.6.24-.26-2.6-4.34-2.9-4.79-1.06-1.63-2.15-3.22-3.24-4.83-1.02-1.51-2.03-3.02-3-4.56,1.2,1.42,2.42,2.82,3.62,4.2,6.82,7.85,13.88,15.97,17.13,25.83,3.6,10.89,2.11,22.66.42,31.69l-.02.13c-.3,1.62-.62,3.3-.32,4.99.37,2.07,1.71,3.72,3.42,4.19.28.08.56.11.84.11,3.01,0,6.11-4.19,8.25-7.47,1.99-3.05,3.47-6.39,4.65-9.25,2.23-5.39,3.5-11.48,4.13-19.75.63-8.36.5-15.08-.43-21.17-.05-.36-.11-.72-.17-1.09-.24-1.44-.54-2.89-.82-4.29-.82-4.07-1.67-8.27-1.34-12.4.31-3.92,1.69-7.75,3.02-11.46ZM262.2,546.25s-5.43,20.74,1.44,39.7c0,0-8.64-16.04-1.44-39.7ZM283.21,493.92s4.48,4.1,11.01,0c0,0-6.04,5.66-11.01,0ZM280.38,490.13s8.25,6.3,16.3-.59c0,0-6.86,9.01-16.3.59ZM301.69,503.12c2.77,0,5.02-2.25,5.02-5.02,0,2.77,2.25,5.02,5.02,5.02-2.77,0-5.02,2.25-5.02,5.02,0-2.77-2.25-5.02-5.02-5.02ZM310.46,536.31s-7.67-11.67,2.03-23.84c0,0-7.37,9.8-2.03,23.84ZM309.6,498.1h0c0-1.59-1.29-2.89-2.89-2.89,1.59,0,2.89-1.29,2.89-2.89h0c0,1.59,1.29,2.89,2.89,2.89-1.59,0-2.89,1.29-2.89,2.89Z"/>
    </g>
  </g>
</svg>