<?xml version="1.0" encoding="UTF-8"?>
<svg id="Layer_1" data-name="Layer 1" xmlns="http://www.w3.org/2000/svg" viewBox="0 0 960 1080">
  <defs>
    <style>
      .cls-1 {
        fill: #a34d9d;
      }

      .cls-2 {
        font-family: Montserrat-SemiBold, Montserrat;
        font-size: 31.48px;
        font-variation-settings: 'wght' 600;
        font-weight: 600;
      }

      .cls-2, .cls-3, .cls-4 {
        fill: #fff;
      }

      .cls-3 {
        font-family: CreativeVintage-Regular, CreativeVintage;
        font-size: 54.65px;
      }

      .cls-5 {
        letter-spacing: 0em;
      }

      .cls-6 {
        letter-spacing: -.08em;
      }

      .cls-7 {
        letter-spacing: -.04em;
      }

      .cls-8 {
        letter-spacing: .06em;
      }

      .cls-9 {
        letter-spacing: .02em;
      }

      .cls-10 {
        letter-spacing: .02em;
      }
    </style>
  </defs>
  <text class="cls-3" transform="translate(207.49 763.96)"><tspan class="cls-10" x="0" y="0">D</tspan><tspan class="cls-6" x="44.86" y="0">r</tspan><tspan class="cls-9" x="72.84" y="0">. No</tspan><tspan class="cls-7" x="187.16" y="0">P</tspan><tspan class="cls-10" x="220.94" y="0">ain </tspan><tspan class="cls-8" x="337.66" y="0">D</tspan><tspan class="cls-10" x="384.71" y="0">ent</tspan><tspan class="cls-5" x="481.16" y="0">a</tspan><tspan class="cls-10" x="521.93" y="0">l</tspan></text>
  <g>
    <g>
      <path class="cls-4" d="M760.48,720.77l-.4.02c-.25-.65-.56-1.04-1.57-1.13v3.63c0,.84.26,1.01.51,1.04l.02.35h-2.62l.02-.35c.24-.04.51-.23.51-.97v-3.7c-1,.09-1.32.48-1.56,1.13l-.4-.02.25-1.5h4.98l.25,1.5Z"/>
      <path class="cls-4" d="M766.19,723.59l-.13-2.97-1.43,4.06h-.9l-1.52-3.62-.11,2.35c.02.73.16.88.46.92l.02.35h-1.83l.02-.35c.23-.04.53-.22.55-.89v.03l.16-3.52c-.08-.25-.28-.32-.48-.34l.03-.35h2.16l1.35,3.22,1.14-3.22h2.34l.03.35c-.22.02-.44.12-.47.46l.16,3.57c.09.53.34.65.55.68l.02.35h-2.62l.02-.35c.22-.03.42-.19.47-.74ZM761.33,723.37v.08-.08ZM767.73,723.29c0,.06,0,.12,0,.18v-.18Z"/>
    </g>
    <path class="cls-4" d="M761.72,731.45c-5.38,0-9.76-4.38-9.76-9.76s4.38-9.76,9.76-9.76,9.76,4.38,9.76,9.76-4.38,9.76-9.76,9.76ZM761.72,712.86c-4.87,0-8.83,3.96-8.83,8.83s3.96,8.83,8.83,8.83,8.83-3.96,8.83-8.83-3.96-8.83-8.83-8.83Z"/>
  </g>
  <g>
    <circle class="cls-1" cx="480" cy="485.3" r="123.16"/>
    <g>
      <text class="cls-2" transform="translate(331.13 432.77) rotate(-66.39)"><tspan x="0" y="0">P</tspan></text>
      <text class="cls-2" transform="translate(339.3 413.69) rotate(-58.69)"><tspan x="0" y="0">A</tspan></text>
      <text class="cls-2" transform="translate(351.54 394.18) rotate(-52.78)"><tspan x="0" y="0">I</tspan></text>
      <text class="cls-2" transform="translate(356.91 386.36) rotate(-46.57)"><tspan x="0" y="0">N</tspan></text>
      <text class="cls-2" transform="translate(374.05 368.46) rotate(-38.6)"><tspan x="0" y="0">F</tspan></text>
      <text class="cls-2" transform="translate(389.1 356.27) rotate(-31.04)"><tspan x="0" y="0">R</tspan></text>
      <text class="cls-2" transform="translate(408.24 344.77) rotate(-23.25)"><tspan x="0" y="0">E</tspan></text>
      <text class="cls-2" transform="translate(426.98 336.67) rotate(-15.77)"><tspan x="0" y="0">E</tspan></text>
      <text class="cls-2" transform="translate(446.88 331.33) rotate(-10.49)"><tspan x="0" y="0"> </tspan></text>
      <text class="cls-2" transform="translate(455.13 329.79) rotate(-7.43)"><tspan x="0" y="0"> </tspan></text>
      <text class="cls-2" transform="translate(463.27 328.49) rotate(-2.6)"><tspan x="0" y="0">T</tspan></text>
      <text class="cls-2" transform="translate(481.56 327.49) rotate(4.68)"><tspan x="0" y="0">R</tspan></text>
      <text class="cls-2" transform="translate(503.8 329.33) rotate(12.45)"><tspan x="0" y="0">E</tspan></text>
      <text class="cls-2" transform="translate(523.74 333.59) rotate(20.37)"><tspan x="0" y="0">A</tspan></text>
      <text class="cls-2" transform="translate(544.19 341.23) rotate(27.51)"><tspan x="0" y="0">T</tspan></text>
      <text class="cls-2" transform="translate(560.56 349.22) rotate(36.13)"><tspan x="0" y="0">M</tspan></text>
      <text class="cls-2" transform="translate(584.01 366.69) rotate(45.08)"><tspan x="0" y="0">E</tspan></text>
      <text class="cls-2" transform="translate(598.54 380.97) rotate(53.24)"><tspan x="0" y="0">N</tspan></text>
      <text class="cls-2" transform="translate(613.25 400.94) rotate(61.05)"><tspan x="0" y="0">T</tspan></text>
      <text class="cls-2" transform="translate(622.08 416.76) rotate(67.83)"><tspan x="0" y="0">S</tspan></text>
    </g>
    <g>
      <text class="cls-2" transform="translate(302.42 540.02) rotate(68.6)"><tspan x="0" y="0">P</tspan></text>
      <text class="cls-2" transform="translate(311.43 562.06) rotate(63.22)"><tspan x="0" y="0">I</tspan></text>
      <text class="cls-2" transform="translate(316.35 572.32) rotate(57.79)"><tspan x="0" y="0">C</tspan></text>
      <text class="cls-2" transform="translate(329.91 593.34) rotate(50.68)"><tspan x="0" y="0">T</tspan></text>
      <text class="cls-2" transform="translate(343.15 609.61) rotate(43.37)"><tspan x="0" y="0">U</tspan></text>
      <text class="cls-2" transform="translate(362.73 627.83) rotate(35.47)"><tspan x="0" y="0">R</tspan></text>
      <text class="cls-2" transform="translate(383.03 642.08) rotate(28.14)"><tspan x="0" y="0">E</tspan></text>
      <text class="cls-2" transform="translate(402.81 652.3) rotate(23.17)"><tspan x="0" y="0"> </tspan></text>
      <text class="cls-2" transform="translate(414.4 657.44) rotate(17.05)"><tspan x="0" y="0">P</tspan></text>
      <text class="cls-2" transform="translate(437.67 664.42) rotate(9.81)"><tspan x="0" y="0">E</tspan></text>
      <text class="cls-2" transform="translate(460.22 668.26) rotate(2.51)"><tspan x="0" y="0">R</tspan></text>
      <text class="cls-2" transform="translate(484.87 669.15) rotate(-4.52)"><tspan x="0" y="0">F</tspan></text>
      <text class="cls-2" transform="translate(506.52 667.38) rotate(-11.35)"><tspan x="0" y="0">E</tspan></text>
      <text class="cls-2" transform="translate(528.91 662.82) rotate(-18.66)"><tspan x="0" y="0">C</tspan></text>
      <text class="cls-2" transform="translate(553.82 654.01) rotate(-26.27)"><tspan x="0" y="0">T</tspan></text>
      <text class="cls-2" transform="translate(571.69 644.91) rotate(-30.87)"><tspan x="0" y="0"> </tspan></text>
      <text class="cls-2" transform="translate(582.5 638.54) rotate(-36.43)"><tspan x="0" y="0">S</tspan></text>
      <text class="cls-2" transform="translate(600.2 625.75) rotate(-44.67)"><tspan x="0" y="0">M</tspan></text>
      <text class="cls-2" transform="translate(622.23 603.03) rotate(-51.29)"><tspan x="0" y="0">I</tspan></text>
      <text class="cls-2" transform="translate(629.34 594.38) rotate(-56.07)"><tspan x="0" y="0">L</tspan></text>
      <text class="cls-2" transform="translate(640.74 577.38) rotate(-62.71)"><tspan x="0" y="0">E</tspan></text>
      <text class="cls-2" transform="translate(651.04 557.12) rotate(-69.54)"><tspan x="0" y="0">S</tspan></text>
    </g>
    <path class="cls-4" d="M480,687.35c-50.58,0-98.99-18.78-136.29-52.89-37.06-33.89-60.09-79.97-64.84-129.75-.05-.54.35-1.03.89-1.08.55-.06,1.03.35,1.08.89,4.7,49.3,27.5,94.93,64.2,128.48,36.94,33.77,84.87,52.37,134.96,52.37s98.02-18.6,134.96-52.37c36.7-33.55,59.5-79.18,64.2-128.48.05-.54.53-.95,1.08-.89.54.05.94.53.89,1.08-4.75,49.79-27.77,95.86-64.84,129.75-37.3,34.11-85.71,52.89-136.29,52.89Z"/>
    <path class="cls-4" d="M480,628.48c-34.84,0-68.42-12.66-94.55-35.66-25.89-22.79-42.69-54.06-47.31-88.07-.07-.54.3-1.04.85-1.11.54-.08,1.04.31,1.11.85,4.56,33.53,21.13,64.38,46.66,86.85,25.77,22.68,58.88,35.17,93.24,35.17s67.48-12.49,93.24-35.17c25.53-22.47,42.1-53.32,46.66-86.85.07-.54.57-.92,1.11-.85.54.07.92.57.85,1.11-4.62,34-21.42,65.28-47.31,88.07-26.13,23-59.7,35.66-94.55,35.66Z"/>
    <path class="cls-4" d="M620.88,466.97c-.49,0-.91-.36-.98-.85-4.56-33.53-21.13-64.38-46.66-86.85-25.77-22.68-58.88-35.17-93.24-35.17s-67.48,12.49-93.24,35.17c-25.53,22.47-42.1,53.32-46.66,86.85-.07.54-.57.93-1.11.85-.54-.07-.92-.57-.85-1.11,4.62-34,21.42-65.28,47.31-88.07,26.13-23,59.7-35.66,94.55-35.66s68.42,12.66,94.55,35.66c25.89,22.79,42.69,54.06,47.31,88.07.07.54-.3,1.04-.85,1.11-.05,0-.09,0-.13,0Z"/>
    <path class="cls-4" d="M680.14,466.97c-.5,0-.93-.38-.98-.89-4.7-49.3-27.5-94.93-64.2-128.48-36.94-33.77-84.87-52.37-134.96-52.37s-98.02,18.6-134.96,52.37c-36.7,33.56-59.5,79.18-64.2,128.48-.05.54-.53.94-1.08.89-.54-.05-.94-.53-.89-1.08,4.75-49.78,27.77-95.86,64.84-129.75,37.3-34.11,85.71-52.89,136.29-52.89s98.99,18.78,136.29,52.89c37.06,33.89,60.09,79.97,64.84,129.75.05.54-.35,1.03-.89,1.08-.03,0-.06,0-.1,0Z"/>
    <g>
      <path class="cls-4" d="M651.03,472.97c0,8.78-7.12,15.9-15.9,15.9,8.78,0,15.9,7.12,15.9,15.9,0-8.78,7.12-15.9,15.9-15.9-8.78,0-15.9-7.12-15.9-15.9Z"/>
      <path class="cls-4" d="M308.97,472.97c0,8.78-7.12,15.9-15.9,15.9,8.78,0,15.9,7.12,15.9,15.9,0-8.78,7.12-15.9,15.9-15.9-8.78,0-15.9-7.12-15.9-15.9Z"/>
    </g>
    <g>
      <path class="cls-4" d="M529.43,388.27c0,7.96-6.45,14.41-14.41,14.41,7.96,0,14.41,6.45,14.41,14.41,0-7.96,6.45-14.41,14.41-14.41-7.96,0-14.41-6.45-14.41-14.41Z"/>
      <path class="cls-4" d="M431.91,557.7c0,5.36-4.34,9.7-9.7,9.7,5.36,0,9.7,4.34,9.7,9.7,0-5.36,4.34-9.7,9.7-9.7-5.36,0-9.7-4.34-9.7-9.7Z"/>
      <path class="cls-4" d="M443.37,573.93c0,3.4-2.76,6.16-6.16,6.16,3.4,0,6.16,2.76,6.16,6.16,0-3.4,2.76-6.16,6.16-6.16-3.4,0-6.16-2.76-6.16-6.16Z"/>
      <path class="cls-4" d="M522.21,448.24c.5-1.41,1.03-2.86,1.51-4.3,2.36-7.01,3.23-14.42,2.37-20.32-1.15-7.9-5.31-13.37-12.01-15.82-.45-.16-.91-.31-1.38-.45-5.65-1.6-12.16-.76-17.86,2.32-.87.47-1.73.99-2.55,1.5-1.89,1.15-3.67,2.24-5.68,2.8-4.47,1.25-8.96-.32-13.72-1.98-.76-.27-1.53-.54-2.31-.79-4.24-2.46-8.93-4.15-13.81-4.52-6.34-.49-12.99,1.38-17.64,5.73-4.26,3.98-6.57,9.75-7.09,15.56-.52,5.8.64,11.65,2.53,17.17,2.61,7.62,6.64,14.89,7.44,22.9.82,8.23-1.85,16.35-3.63,24.43-4.48,20.31-3.23,42.13,5.24,61.12,2.68,6.01,6.47,12.08,12.52,14.65,1.7.72,3.75,1.1,5.31.11,2.03-1.3,2.16-4.19,1.82-6.58-.57-3.99-1.85-7.83-2.76-11.75-4.92-21.05,1.14-44.35,15.69-60.33.33-.36-3.6-6.01-4.01-6.63-1.46-2.25-2.98-4.46-4.48-6.68-1.41-2.09-2.81-4.18-4.15-6.32,1.67,1.96,3.35,3.9,5.02,5.82,9.44,10.86,19.21,22.1,23.71,35.74,4.98,15.07,2.93,31.35.58,43.85l-.03.17c-.42,2.24-.86,4.56-.44,6.9.51,2.87,2.36,5.14,4.73,5.8.39.11.77.16,1.16.16,4.17,0,8.46-5.8,11.42-10.34,2.75-4.22,4.8-8.84,6.44-12.8,3.09-7.45,4.85-15.88,5.72-27.33.88-11.56.69-20.87-.59-29.3-.08-.5-.16-1-.24-1.5-.34-1.99-.74-4-1.13-5.94-1.14-5.63-2.31-11.45-1.85-17.16.43-5.42,2.34-10.73,4.18-15.86ZM446.47,493.25s-7.51,28.71,1.99,54.94c0,0-11.95-22.2-1.99-54.94ZM475.54,420.84s6.2,5.68,15.24,0c0,0-8.36,7.83-15.24,0ZM471.63,415.59s11.42,8.72,22.55-.82c0,0-9.49,12.47-22.55.82ZM501.12,433.57c3.84,0,6.95-3.11,6.95-6.95,0,3.84,3.11,6.95,6.95,6.95-3.84,0-6.95,3.11-6.95,6.95,0-3.84-3.11-6.95-6.95-6.95ZM513.25,479.5s-10.62-16.16,2.8-33c0,0-10.2,13.56-2.8,33ZM512.06,426.62h0c0-2.21-1.79-3.99-3.99-3.99,2.21,0,3.99-1.79,3.99-3.99h0c0,2.21,1.79,3.99,3.99,3.99-2.21,0-3.99,1.79-3.99,3.99Z"/>
    </g>
  </g>
</svg>