<?xml version="1.0" encoding="UTF-8"?>
<svg version="1.1" xmlns="http://www.w3.org/2000/svg" width="882" height="385">
<path d="M0 0 C291.06 0 582.12 0 882 0 C882 127.05 882 254.1 882 385 C590.94 385 299.88 385 0 385 C0 257.95 0 130.9 0 0 Z " fill="#7D277D" transform="translate(0,0)"/>
<path d="M0 0 C14.00288364 13.1246846 25.35480139 29.95212141 30.51416016 48.63525391 C30.81064453 49.69357422 31.10712891 50.75189453 31.41259766 51.84228516 C33.54851686 61.04241422 33.79588647 70.0804857 33.82666016 79.51025391 C33.83213867 80.74630371 33.83761719 81.98235352 33.84326172 83.25585938 C33.78826283 90.2890792 33.25964794 96.81795719 31.51416016 103.63525391 C31.34795166 104.29928223 31.18174316 104.96331055 31.01049805 105.64746094 C23.44623802 134.1828535 5.66285457 156.92825411 -19.29833984 172.38525391 C-43.60915664 186.0198919 -73.9437914 190.04307508 -100.95458984 183.02587891 C-129.32429701 174.73281442 -152.87050347 156.31529974 -167.44677734 130.57666016 C-170.86221891 124.21296862 -173.22038418 117.47532742 -175.48583984 110.63525391 C-175.97890625 109.17539062 -175.97890625 109.17539062 -176.48193359 107.68603516 C-179.6029571 97.93470335 -179.6681815 88.43251475 -179.67333984 78.26025391 C-179.68558594 76.99697266 -179.69783203 75.73369141 -179.71044922 74.43212891 C-179.72167227 67.23441231 -179.28923235 60.60847566 -177.48583984 53.63525391 C-177.16486328 52.35521484 -176.84388672 51.07517578 -176.51318359 49.75634766 C-168.20129906 21.66277375 -149.9837392 -1.23814815 -124.34960938 -15.55810547 C-83.89352576 -36.99936848 -33.81023307 -31.05474907 0 0 Z " fill="#A34D9E" transform="translate(292.48583984375,114.36474609375)"/>
<path d="M0 0 C5.81434751 2.62922691 10.66370692 3.71671802 17 2.5 C19.51588315 1.39558468 19.51588315 1.39558468 21.9375 0 C27.57019922 -3.12529734 32.66975207 -3.71902986 39 -2.5 C43.65438306 -0.37825876 46.30214219 2.38778912 49 6.6875 C51.59381462 16.57641822 49.55744836 25.46125699 46.1328125 34.88671875 C42.92013448 44.14229113 43.23316761 53.5539225 45.00390625 63.07421875 C46.21993716 70.04634755 46.29462898 76.87496323 46.25 83.9375 C46.26160156 85.76764648 46.26160156 85.76764648 46.2734375 87.63476562 C46.24976409 98.76718675 45.55612379 109.62931919 40.75 119.8125 C40.44280029 120.48692139 40.13560059 121.16134277 39.8190918 121.85620117 C36.70894709 128.47937567 33.20978685 134.3891211 27 138.5 C24.59666311 138.35434322 23.2932393 137.67803815 21.25 136.4375 C18.26895796 131.81688484 20.135323 125.4759722 21 120.375 C23.84833462 102.64975221 21.16292767 86.93775187 10.6796875 72.1484375 C7.96393679 68.44167219 5.25394189 64.75394189 2 61.5 C3.0209375 62.8303125 3.0209375 62.8303125 4.0625 64.1875 C6 67.5 6 67.5 5.828125 69.9140625 C4.88238919 72.86725639 3.57901925 74.73703073 1.6875 77.1875 C-5.5489873 87.1581016 -7.17895514 96.73861646 -7.1875 108.8125 C-7.20586914 110.16118164 -7.20586914 110.16118164 -7.22460938 111.53710938 C-7.2359847 116.78113529 -6.71912664 121.46903216 -5.4519043 126.55541992 C-4.90731718 128.89882155 -4.76531125 131.09766381 -4.8125 133.5 C-4.81894531 134.2425 -4.82539063 134.985 -4.83203125 135.75 C-5 137.5 -5 137.5 -6 138.5 C-11.3747068 138.18992076 -14.11029216 137.18241934 -18 133.5 C-24.45701062 123.15560544 -28.39216085 111.69253826 -29 99.5 C-29.06445312 98.31148438 -29.12890625 97.12296875 -29.1953125 95.8984375 C-29.48803816 87.62718936 -28.70188694 80.03709853 -27 71.9375 C-24.02786279 57.48085723 -24.06146436 45.8794447 -29.58984375 32.046875 C-32.49319752 24.74425667 -33.38716861 16.74784269 -31.3515625 9.046875 C-29.15246445 4.12239903 -25.78823209 0.94661859 -21 -1.5 C-13.73757688 -3.80671226 -6.84757566 -3.15630441 0 0 Z " fill="#FCFBFC" transform="translate(210,127.5)"/>
<path d="M0 0 C5.10451702 -0.09958538 10.20845677 -0.17180331 15.3137207 -0.21972656 C17.04689395 -0.2397241 18.78000075 -0.26693148 20.51293945 -0.30175781 C40.19043899 -0.68703566 40.19043899 -0.68703566 48.3046875 5.859375 C54.06813645 12.79845284 56.73946291 18.90587964 56.484375 28.05078125 C55.43747591 34.42504587 52.48422292 40.57007703 47.85546875 45.09765625 C46.91316406 45.72542969 45.97085938 46.35320312 45 47 C44.44876465 47.3714917 43.8975293 47.7429834 43.32958984 48.12573242 C35.41043983 52.55550086 26.20893686 51.43140129 17.4375 51.25 C15.74416174 51.22990488 14.05080047 51.21165943 12.35742188 51.1953125 C8.23770628 51.15155338 4.11911049 51.0826939 0 51 C0 47 0 47 1.4375 45.375 C2.2109375 44.694375 2.2109375 44.694375 3 44 C4.57118502 40.85762995 4.2050653 37.48728255 4.23828125 34.03515625 C4.246353 33.24604355 4.25442474 32.45693085 4.26274109 31.64390564 C4.27657747 29.97364498 4.28730163 28.3033561 4.29516602 26.63305664 C4.31241036 24.07579327 4.35630152 21.51981246 4.40039062 18.96289062 C4.41051489 17.34115535 4.41903183 15.71940908 4.42578125 14.09765625 C4.44328934 13.33195816 4.46079742 12.56626007 4.47883606 11.77735901 C4.51399538 9.36383391 4.51399538 9.36383391 4 6 C2.07746782 4.15848571 2.07746782 4.15848571 0 3 C0 2.01 0 1.02 0 0 Z " fill="#FCFBFC" transform="translate(425,203)"/>
<path d="M0 0 C5.10451702 -0.09958538 10.20845677 -0.17180331 15.3137207 -0.21972656 C17.04689395 -0.2397241 18.78000075 -0.26693148 20.51293945 -0.30175781 C40.19043899 -0.68703566 40.19043899 -0.68703566 48.3046875 5.859375 C54.06813645 12.79845284 56.73946291 18.90587964 56.484375 28.05078125 C55.43747591 34.42504587 52.48422292 40.57007703 47.85546875 45.09765625 C46.91316406 45.72542969 45.97085938 46.35320312 45 47 C44.44876465 47.3714917 43.8975293 47.7429834 43.32958984 48.12573242 C35.41043983 52.55550086 26.20893686 51.43140129 17.4375 51.25 C15.74416174 51.22990488 14.05080047 51.21165943 12.35742188 51.1953125 C8.23770628 51.15155338 4.11911049 51.0826939 0 51 C0 47 0 47 1.4375 45.375 C2.2109375 44.694375 2.2109375 44.694375 3 44 C4.57118502 40.85762995 4.2050653 37.48728255 4.23828125 34.03515625 C4.246353 33.24604355 4.25442474 32.45693085 4.26274109 31.64390564 C4.27657747 29.97364498 4.28730163 28.3033561 4.29516602 26.63305664 C4.31241036 24.07579327 4.35630152 21.51981246 4.40039062 18.96289062 C4.41051489 17.34115535 4.41903183 15.71940908 4.42578125 14.09765625 C4.44328934 13.33195816 4.46079742 12.56626007 4.47883606 11.77735901 C4.51399538 9.36383391 4.51399538 9.36383391 4 6 C2.07746782 4.15848571 2.07746782 4.15848571 0 3 C0 2.01 0 1.02 0 0 Z " fill="#FCFBFC" transform="translate(425,131)"/>
<path d="M0 0 C21.02228135 -2.18631726 21.02228135 -2.18631726 26.97216797 1.08398438 C30.16594555 4.08030564 31.98343099 7.8640319 33.85302734 11.7734375 C36.05435537 16.04676904 38.90726159 19.9187038 41.625 23.875 C42.66230715 25.43260179 43.69646522 26.99230821 44.7265625 28.5546875 C45.16564941 29.21968262 45.60473633 29.88467773 46.05712891 30.56982422 C46.36827637 31.04178223 46.67942383 31.51374023 47 32 C47.11614929 27.9169058 47.18723457 23.83423623 47.25 19.75 C47.28351562 18.59113281 47.31703125 17.43226563 47.3515625 16.23828125 C47.36445312 15.12324219 47.37734375 14.00820312 47.390625 12.859375 C47.41157227 11.83295898 47.43251953 10.80654297 47.45410156 9.74902344 C46.88513275 6.30462087 45.51227872 5.31606516 43 3 C43 2.01 43 1.02 43 0 C48.61 0 54.22 0 60 0 C60 0.99 60 1.98 60 3 C59.02885254 3.7729541 59.02885254 3.7729541 58.03808594 4.56152344 C54.86095187 8.36281896 55.39689929 12.20612617 55.390625 17.015625 C55.37408875 17.98659119 55.35755249 18.95755737 55.34051514 19.95794678 C55.29197881 23.05536183 55.27065143 26.15228573 55.25 29.25 C55.22184507 31.35158729 55.19191832 33.45315164 55.16015625 35.5546875 C55.0862181 40.70308458 55.03667771 45.85120808 55 51 C52.75916545 51.12187853 50.51641946 51.20896052 48.2734375 51.28125 C47.02481934 51.33345703 45.77620117 51.38566406 44.48974609 51.43945312 C41 51 41 51 38.48706055 48.93603516 C36.61006283 46.48045849 34.97574544 43.94451862 33.39794922 41.28808594 C31.0191456 37.39459178 28.423767 33.64573342 25.87060547 29.86523438 C23.14832442 25.8247385 20.46251387 21.76082863 17.7800293 17.69384766 C15.86149475 14.79038994 13.93204387 11.89448156 12 9 C11.97524936 13.76887637 11.95711597 18.53771521 11.94506836 23.30664062 C11.94004495 24.92839204 11.93322506 26.55013895 11.92456055 28.171875 C11.91240771 30.50521969 11.90675172 32.8385044 11.90234375 35.171875 C11.89718246 35.89493835 11.89202118 36.61800171 11.88670349 37.36297607 C11.77991582 42.2971041 11.77991582 42.2971041 13 47 C13.99 47.33 14.98 47.66 16 48 C16 48.99 16 49.98 16 51 C10.39 51 4.78 51 -1 51 C-0.67 49.68 -0.34 48.36 0 47 C0.66 47 1.32 47 2 47 C3.17234494 42.79908514 3.18022286 38.70139025 3.203125 34.3671875 C3.20882507 33.53414093 3.21452515 32.70109436 3.22039795 31.84280396 C3.22982504 30.08613346 3.23637281 28.32944546 3.24023438 26.57275391 C3.24999051 23.87762167 3.28105476 21.18323628 3.3125 18.48828125 C3.31902553 16.78125453 3.32427776 15.07422236 3.328125 13.3671875 C3.3404718 12.55885468 3.3528186 11.75052185 3.36553955 10.91769409 C3.39067696 8.41618206 3.39067696 8.41618206 3 5 C2.01 4.34 1.02 3.68 0 3 C0 2.01 0 1.02 0 0 Z " fill="#FCFCFC" transform="translate(568,131)"/>
<path d="M0 0 C5.29098074 2.32186727 8.54579432 6.49019072 11.44921875 11.3828125 C13.65501201 18.00019227 13.24012505 24.52737881 10.26171875 30.8203125 C7.14353799 36.34045323 3.42491946 39.51078625 -2.54296875 41.8359375 C-9.89889502 43.83949718 -15.86565996 42.46364318 -22.421875 38.80078125 C-27.2201781 35.60484726 -30.1038196 30.93123381 -31.55078125 25.3828125 C-32.43288873 18.27281364 -31.89030613 12.23983995 -27.55078125 6.3828125 C-20.03063235 -1.4992687 -10.32972957 -2.49938326 0 0 Z " fill="#FAF8FA" transform="translate(663.55078125,140.6171875)"/>
<path d="M0 0 C5.37935028 3.31917357 8.6304206 6.93233942 10.9375 12.8125 C11.43530922 16.76609938 11.5391954 20.70616654 11.625 24.6875 C11.65916016 25.75742188 11.69332031 26.82734375 11.72851562 27.9296875 C11.81062498 30.55718689 11.87989624 33.18436816 11.9375 35.8125 C14.2475 35.4825 16.5575 35.1525 18.9375 34.8125 C18.9375 36.1325 18.9375 37.4525 18.9375 38.8125 C14.56346631 42.8848762 10.11165233 43.14725659 4.38671875 43.10546875 C0.95156155 42.69456478 -0.76419014 41.33322694 -3.0625 38.8125 C-3.3925 38.1525 -3.7225 37.4925 -4.0625 36.8125 C-4.619375 37.43125 -5.17625 38.05 -5.75 38.6875 C-10.65055378 43.19071158 -15.78388493 43.23892619 -22.17578125 43.13671875 C-26.28325193 42.67539254 -28.04351911 41.59314029 -31.0625 38.8125 C-33.54746441 35.08505338 -33.66255465 32.71749943 -33.56640625 28.3203125 C-32.82014033 24.60633792 -31.13195553 23.12553241 -28.09765625 20.99609375 C-27.09025391 20.41021484 -27.09025391 20.41021484 -26.0625 19.8125 C-25.48371094 19.47347656 -24.90492188 19.13445312 -24.30859375 18.78515625 C-17.95597172 15.80779344 -10.91039989 16.5528184 -4.0625 16.8125 C-4.37032496 15.16578588 -4.68389234 13.52014424 -5 11.875 C-5.17402344 10.95847656 -5.34804688 10.04195312 -5.52734375 9.09765625 C-5.83964988 6.85960156 -5.83964988 6.85960156 -7.0625 5.8125 C-9.39547433 5.77157063 -11.72955225 5.77008277 -14.0625 5.8125 C-14.51625 6.946875 -14.97 8.08125 -15.4375 9.25 C-17.0625 12.8125 -17.0625 12.8125 -19.0625 13.8125 C-25.53308824 14.16544118 -25.53308824 14.16544118 -29.0625 11.8125 C-28.94277155 5.706349 -28.94277155 5.706349 -26.54296875 3.26953125 C-19.11101712 -2.06582771 -8.67679234 -3.40530431 0 0 Z " fill="#FAF8FA" transform="translate(653.0625,212.1875)"/>
<path d="M0 0 C5.37935028 3.31917357 8.6304206 6.93233942 10.9375 12.8125 C11.43530922 16.76609938 11.5391954 20.70616654 11.625 24.6875 C11.65916016 25.75742188 11.69332031 26.82734375 11.72851562 27.9296875 C11.81062498 30.55718689 11.87989624 33.18436816 11.9375 35.8125 C14.2475 35.4825 16.5575 35.1525 18.9375 34.8125 C18.9375 36.1325 18.9375 37.4525 18.9375 38.8125 C14.56346631 42.8848762 10.11165233 43.14725659 4.38671875 43.10546875 C0.95156155 42.69456478 -0.76419014 41.33322694 -3.0625 38.8125 C-3.3925 38.1525 -3.7225 37.4925 -4.0625 36.8125 C-4.619375 37.43125 -5.17625 38.05 -5.75 38.6875 C-10.65055378 43.19071158 -15.78388493 43.23892619 -22.17578125 43.13671875 C-26.28325193 42.67539254 -28.04351911 41.59314029 -31.0625 38.8125 C-33.54746441 35.08505338 -33.66255465 32.71749943 -33.56640625 28.3203125 C-32.82014033 24.60633792 -31.13195553 23.12553241 -28.09765625 20.99609375 C-27.09025391 20.41021484 -27.09025391 20.41021484 -26.0625 19.8125 C-25.48371094 19.47347656 -24.90492188 19.13445312 -24.30859375 18.78515625 C-17.95597172 15.80779344 -10.91039989 16.5528184 -4.0625 16.8125 C-4.37032496 15.16578588 -4.68389234 13.52014424 -5 11.875 C-5.17402344 10.95847656 -5.34804688 10.04195312 -5.52734375 9.09765625 C-5.83964988 6.85960156 -5.83964988 6.85960156 -7.0625 5.8125 C-9.39547433 5.77157063 -11.72955225 5.77008277 -14.0625 5.8125 C-14.51625 6.946875 -14.97 8.08125 -15.4375 9.25 C-17.0625 12.8125 -17.0625 12.8125 -19.0625 13.8125 C-25.53308824 14.16544118 -25.53308824 14.16544118 -29.0625 11.8125 C-28.94277155 5.706349 -28.94277155 5.706349 -26.54296875 3.26953125 C-19.11101712 -2.06582771 -8.67679234 -3.40530431 0 0 Z " fill="#FAF8FA" transform="translate(758.0625,140.1875)"/>
<path d="M0 0 C3.94684991 -0.07505712 7.89341427 -0.12902215 11.84082031 -0.16479492 C13.83152905 -0.18701479 15.82203968 -0.22516595 17.8125 -0.26367188 C34.80934396 -0.39243584 34.80934396 -0.39243584 41.625 5.125 C43.56909954 9.18993541 43.75022777 12.57678209 43 17 C40.41114928 22.71704534 36.58480287 24.7637853 31 27 C28.11788698 27.96070434 26.30149956 28.10581883 23.3125 28.0625 C22.10013672 28.04896484 22.10013672 28.04896484 20.86328125 28.03515625 C20.24839844 28.02355469 19.63351562 28.01195312 19 28 C19.1409349 30.43787385 19.28754542 32.87517853 19.4375 35.3125 C19.47681641 36.00279297 19.51613281 36.69308594 19.55664062 37.40429688 C19.74927415 40.47161535 20.02322717 43.06968152 21 46 C21.99 46.66 22.98 47.32 24 48 C24 48.99 24 49.98 24 51 C15.75 51 7.5 51 -1 51 C-0.67 49.68 -0.34 48.36 0 47 C0.66 47 1.32 47 2 47 C3.17234494 42.79908514 3.18022286 38.70139025 3.203125 34.3671875 C3.20882507 33.53414093 3.21452515 32.70109436 3.22039795 31.84280396 C3.22982504 30.08613346 3.23637281 28.32944546 3.24023438 26.57275391 C3.24999051 23.87762167 3.28105476 21.18323628 3.3125 18.48828125 C3.31902553 16.78125453 3.32427776 15.07422236 3.328125 13.3671875 C3.3404718 12.55885468 3.3528186 11.75052185 3.36553955 10.91769409 C3.39067696 8.41618206 3.39067696 8.41618206 3 5 C2.01 4.34 1.02 3.68 0 3 C0 2.01 0 1.02 0 0 Z " fill="#FBFAFB" transform="translate(681,131)"/>
<path d="M0 0 C0.79921875 0.00902344 1.5984375 0.01804688 2.421875 0.02734375 C3.02515625 0.03894531 3.6284375 0.05054688 4.25 0.0625 C4.91 2.0425 5.57 4.0225 6.25 6.0625 C7.19875 5.258125 8.1475 4.45375 9.125 3.625 C13.34314059 0.04875037 16.27899752 -0.28609729 21.7734375 -0.21484375 C25.35001825 0.18568816 26.91055681 1.36859572 29.25 4.0625 C33.85455575 10.75595177 32.68519931 18.97723457 32.68945312 26.76171875 C32.71749023 28.46134766 32.71749023 28.46134766 32.74609375 30.1953125 C32.74887329 31.74049561 32.74887329 31.74049561 32.75170898 33.31689453 C33.37187758 36.73405082 34.75252814 37.75242371 37.25 40.0625 C37.25 41.0525 37.25 42.0425 37.25 43.0625 C29.33 43.0625 21.41 43.0625 13.25 43.0625 C13.25 41.7425 13.25 40.4225 13.25 39.0625 C14.24 38.4025 15.23 37.7425 16.25 37.0625 C18.01077212 32.3586414 17.43430464 27.00891644 17.4375 22.0625 C17.45586914 20.56589844 17.45586914 20.56589844 17.47460938 19.0390625 C17.47654297 18.07742187 17.47847656 17.11578125 17.48046875 16.125 C17.48663208 14.81208984 17.48663208 14.81208984 17.49291992 13.47265625 C17.23407795 10.90452763 16.54503365 9.2746754 15.25 7.0625 C12.8587705 6.8511547 12.8587705 6.8511547 10.25 8.0625 C5.86464171 13.2184484 5.84130887 19.87878646 5.75 26.3125 C5.73155029 27.09294678 5.71310059 27.87339355 5.6940918 28.67749023 C5.75000221 33.83730175 6.65883931 36.15782528 10.25 40.0625 C10.25 41.0525 10.25 42.0425 10.25 43.0625 C2.33 43.0625 -5.59 43.0625 -13.75 43.0625 C-13.75 41.7425 -13.75 40.4225 -13.75 39.0625 C-12.76 39.0625 -11.77 39.0625 -10.75 39.0625 C-9.16856099 33.70057016 -9.48467116 28.16918368 -9.4375 22.625 C-9.40849609 21.49255859 -9.37949219 20.36011719 -9.34960938 19.19335938 C-9.22163568 12.65275858 -9.22163568 12.65275858 -11.76953125 6.77734375 C-12.42308594 6.21144531 -13.07664062 5.64554688 -13.75 5.0625 C-9.0582078 1.0223456 -6.11681703 -0.08995319 0 0 Z " fill="#FCFAFC" transform="translate(547.75,210.9375)"/>
<path d="M0 0 C0.79921875 0.00902344 1.5984375 0.01804688 2.421875 0.02734375 C3.02515625 0.03894531 3.6284375 0.05054688 4.25 0.0625 C4.91 2.0425 5.57 4.0225 6.25 6.0625 C7.19875 5.258125 8.1475 4.45375 9.125 3.625 C13.34314059 0.04875037 16.27899752 -0.28609729 21.7734375 -0.21484375 C25.35001825 0.18568816 26.91055681 1.36859572 29.25 4.0625 C33.85455575 10.75595177 32.68519931 18.97723457 32.68945312 26.76171875 C32.71749023 28.46134766 32.71749023 28.46134766 32.74609375 30.1953125 C32.74887329 31.74049561 32.74887329 31.74049561 32.75170898 33.31689453 C33.37187758 36.73405082 34.75252814 37.75242371 37.25 40.0625 C37.25 41.0525 37.25 42.0425 37.25 43.0625 C29.33 43.0625 21.41 43.0625 13.25 43.0625 C13.25 41.7425 13.25 40.4225 13.25 39.0625 C14.24 38.4025 15.23 37.7425 16.25 37.0625 C18.01077212 32.3586414 17.43430464 27.00891644 17.4375 22.0625 C17.45586914 20.56589844 17.45586914 20.56589844 17.47460938 19.0390625 C17.47654297 18.07742187 17.47847656 17.11578125 17.48046875 16.125 C17.48663208 14.81208984 17.48663208 14.81208984 17.49291992 13.47265625 C17.23407795 10.90452763 16.54503365 9.2746754 15.25 7.0625 C12.8587705 6.8511547 12.8587705 6.8511547 10.25 8.0625 C5.86464171 13.2184484 5.84130887 19.87878646 5.75 26.3125 C5.73155029 27.09294678 5.71310059 27.87339355 5.6940918 28.67749023 C5.75000221 33.83730175 6.65883931 36.15782528 10.25 40.0625 C10.25 41.0525 10.25 42.0425 10.25 43.0625 C2.33 43.0625 -5.59 43.0625 -13.75 43.0625 C-13.75 41.7425 -13.75 40.4225 -13.75 39.0625 C-12.76 39.0625 -11.77 39.0625 -10.75 39.0625 C-9.16856099 33.70057016 -9.48467116 28.16918368 -9.4375 22.625 C-9.40849609 21.49255859 -9.37949219 20.36011719 -9.34960938 19.19335938 C-9.22163568 12.65275858 -9.22163568 12.65275858 -11.76953125 6.77734375 C-12.42308594 6.21144531 -13.07664062 5.64554688 -13.75 5.0625 C-9.0582078 1.0223456 -6.11681703 -0.08995319 0 0 Z " fill="#FCFAFC" transform="translate(821.75,138.9375)"/>
<path d="M0 0 C3.21299039 1.97192114 5.51278228 3.97602659 7.375 7.3125 C7.83188584 10.96758673 7.63752523 13.5061725 6.5 17 C2.20461958 21.67438457 -3.16884361 23.15214989 -9.39453125 23.55859375 C-12.81455522 23.56205882 -16.20992369 23.48965093 -19.625 23.3125 C-17.98396548 27.17213985 -16.54408322 30.49553714 -13.375 33.3125 C-9.73944477 34.63452009 -6.41886487 34.90133168 -2.625 34.3125 C-0.60973831 33.34362419 1.39333966 32.3483679 3.375 31.3125 C5.75 31.625 5.75 31.625 7.375 32.3125 C7.00095486 34.82394596 6.70723398 36.01916171 4.7734375 37.7265625 C-2.29924667 41.95924994 -9.29545542 44.58978742 -17.625 43.3125 C-25.41710148 40.85434854 -30.51804722 36.33325415 -34.625 29.3125 C-36.57169359 23.50677264 -36.61140447 16.74405504 -34.125 11.125 C-27.30725679 -0.83637865 -12.75826894 -5.93463734 0 0 Z " fill="#FAF7FA" transform="translate(522.625,212.6875)"/>
<path d="M0 0 C0.752742 -0.00073517 1.50548401 -0.00147034 2.28103638 -0.00222778 C24.59929873 0.05441383 45.57943921 4.11322945 66.3125 12.4375 C68.11074219 13.11039063 68.11074219 13.11039063 69.9453125 13.796875 C89.95344691 21.68871456 107.79340562 34.73131057 123.3125 49.4375 C124.20710938 50.27925781 125.10171875 51.12101562 126.0234375 51.98828125 C152.43249445 77.54662628 173.2677718 116.29942913 175.4921875 153.4375 C175.49844027 155.43838691 175.41953741 157.43946834 175.3125 159.4375 C174.6525 159.4375 173.9925 159.4375 173.3125 159.4375 C173.05726563 157.64119141 173.05726563 157.64119141 172.796875 155.80859375 C171.27263149 145.43345483 169.26424028 135.51216565 166.3125 125.4375 C166.05082031 124.42171875 165.78914063 123.4059375 165.51953125 122.359375 C159.73689223 101.1835138 147.75595157 80.84240795 133.3125 64.4375 C132.57128906 63.58671875 131.83007812 62.7359375 131.06640625 61.859375 C128.84815027 59.35278419 126.59143116 56.88895588 124.3125 54.4375 C123.6628125 53.72207031 123.013125 53.00664063 122.34375 52.26953125 C100.30594478 29.00269458 68.41574612 13.16595732 37.3125 6.4375 C36.10722656 6.16035156 34.90195313 5.88320313 33.66015625 5.59765625 C12.11688712 1.17556396 -13.34663118 1.18245329 -34.6875 6.4375 C-35.79689941 6.68693359 -35.79689941 6.68693359 -36.92871094 6.94140625 C-82.27807058 17.14076244 -120.85461007 44.69137711 -145.875 83.75 C-160.65405244 107.40637901 -167.42123241 132.0046509 -171.6875 159.4375 C-172.3475 159.4375 -173.0075 159.4375 -173.6875 159.4375 C-173.58647397 124.63403343 -156.45650461 88.29859166 -133.6875 62.4375 C-132.94628906 61.58671875 -132.20507812 60.7359375 -131.44140625 59.859375 C-129.22315027 57.35278419 -126.96643116 54.88895588 -124.6875 52.4375 C-124.0378125 51.72207031 -123.388125 51.00664063 -122.71875 50.26953125 C-101.4515505 27.81627639 -71.25943487 12.21955736 -41.5 4.625 C-40.74170898 4.43010986 -39.98341797 4.23521973 -39.20214844 4.03442383 C-26.25702867 0.92688291 -13.25809098 -0.005707 0 0 Z " fill="#EEE4EE" transform="translate(218.6875,17.5625)"/>
<path d="M0 0 C0.66 0 1.32 0 2 0 C2.11891602 0.94746094 2.11891602 0.94746094 2.24023438 1.9140625 C6.03899928 31.04492266 15.14059474 60.23378756 33 84 C34.11761719 85.53914063 34.11761719 85.53914063 35.2578125 87.109375 C44.37543143 99.47823789 54.67312233 110.77168175 67 120 C67.52142578 120.39638672 68.04285156 120.79277344 68.58007812 121.20117188 C106.48465021 149.88692242 153.01395376 162.05160146 200.1875 155.625 C229.81816744 151.0742149 258.78080326 139.06707341 282 120 C282.6172998 119.49404297 283.23459961 118.98808594 283.87060547 118.46679688 C287.98996189 115.06160288 292.02274104 111.56979228 296 108 C297.01126953 107.09894531 297.01126953 107.09894531 298.04296875 106.1796875 C324.42673778 81.23731203 341.81756852 42.82592122 346.06323242 7.18286133 C346.3171164 5.11390577 346.65075494 3.05500902 347 1 C347.66 0.67 348.32 0.34 349 0 C350.19698104 41.17614791 325.33896437 79.97215957 298.94921875 109.27734375 C269.10012274 140.53260702 223.85013896 159.08901769 181.03125 160.1796875 C133.77715487 160.92918054 89.52165289 145.80415773 55 113 C53.58928156 111.78472745 52.17306281 110.57579395 50.75 109.375 C22.41811995 84.52748423 2.99586593 43.12618494 0.25 5.8125 C0.15260441 3.87565597 0.0632385 1.93825994 0 0 Z " fill="#EDE2ED" transform="translate(45,209)"/>
<path d="M0 0 C1.73956658 1.73956658 1.37190386 4.1936622 1.5625 6.5625 C1.68818359 8.08037109 1.68818359 8.08037109 1.81640625 9.62890625 C1.87699219 10.41136719 1.93757813 11.19382813 2 12 C2.515625 11.13375 3.03125 10.2675 3.5625 9.375 C6.13479694 5.57089889 9.06711839 2.4157952 13 0 C17.47474968 -0.84865942 19.17847173 -0.53057034 23 1.9375 C25.44817407 5.68626655 25.41650997 7.59905584 24.640625 11.90234375 C23.71194863 14.94319258 22.74324065 16.36888394 20 18 C16.09954411 17.84079772 14.26875831 17.17917221 11 15 C8.5 14.5 8.5 14.5 6 15 C2.55037483 18.08002248 2.36487227 21.5485583 2 26 C1.63015512 32.6080602 1.63015512 32.6080602 3 39 C4.485 39.495 4.485 39.495 6 40 C6 40.99 6 41.98 6 43 C-1.92 43 -9.84 43 -18 43 C-18 41.68 -18 40.36 -18 39 C-17.0253479 38.04855103 -17.0253479 38.04855103 -16.03100586 37.07788086 C-13.49706888 34.48546138 -13.49665204 33.31950655 -13.50390625 29.75390625 C-13.50326172 28.75166016 -13.50261719 27.74941406 -13.50195312 26.71679688 C-13.52193359 25.67587891 -13.54191406 24.63496094 -13.5625 23.5625 C-13.55541016 22.52544922 -13.54832031 21.48839844 -13.54101562 20.41992188 C-13.58574364 15.06288183 -13.68452927 11.42355909 -17 7 C-17 6.01 -17 5.02 -17 4 C-11.18641182 0.61754869 -6.76294816 -0.90271299 0 0 Z " fill="#FBF9FB" transform="translate(503,139)"/>
<path d="M0 0 C1.17216064 0.01804688 2.34432129 0.03609375 3.55200195 0.0546875 C4.4462085 0.07789063 5.34041504 0.10109375 6.26171875 0.125 C6.26536438 0.72777267 6.26901001 1.33054535 6.27276611 1.95158386 C6.31460267 8.22991378 6.38395643 14.50751343 6.46923828 20.78540039 C6.49744988 23.12777398 6.51866343 25.47024281 6.53271484 27.81274414 C6.55414099 31.18164839 6.60079191 34.54940737 6.65234375 37.91796875 C6.65357239 38.96397751 6.65480103 40.00998627 6.65606689 41.08769226 C6.77132294 46.81956122 7.06567305 49.87517223 11.26171875 54.125 C11.26171875 55.115 11.26171875 56.105 11.26171875 57.125 C3.34171875 57.125 -4.57828125 57.125 -12.73828125 57.125 C-12.73828125 55.805 -12.73828125 54.485 -12.73828125 53.125 C-11.74828125 53.125 -10.75828125 53.125 -9.73828125 53.125 C-8.56110322 48.90247126 -8.53955687 44.77092723 -8.5 40.4140625 C-8.49192825 39.56830658 -8.48385651 38.72255066 -8.47554016 37.85116577 C-8.46173193 36.0642093 -8.45099524 34.27722682 -8.44311523 32.49023438 C-8.4315814 30.66691333 -8.4111074 28.84362642 -8.3815918 27.02050781 C-8.33886678 24.38062689 -8.3227413 21.74174645 -8.3125 19.1015625 C-8.29499191 18.29200104 -8.27748383 17.48243958 -8.25944519 16.64834595 C-8.28021611 11.19964323 -9.29979741 8.37471589 -12.73828125 4.125 C-8.53697954 0.28380987 -5.70366311 -0.11385978 0 0 Z " fill="#FDFCFD" transform="translate(686.73828125,196.875)"/>
<path d="M0 0 C0 3.96 0 7.92 0 12 C2.64 12 5.28 12 8 12 C8 13.65 8 15.3 8 17 C5.36 17 2.72 17 0 17 C0.495 32.345 0.495 32.345 1 48 C4.465 47.505 4.465 47.505 8 47 C8 48.32 8 49.64 8 51 C3.62707441 55.07134451 -0.82613739 55.33920537 -6.55078125 55.2890625 C-10.01645467 54.88003565 -11.71507559 53.57975337 -14 51 C-15.17942085 47.46173745 -15.11289189 44.65851274 -15.09765625 40.92578125 C-15.0962413 40.2419487 -15.09482635 39.55811615 -15.09336853 38.8535614 C-15.08777876 36.67316278 -15.07522822 34.49286749 -15.0625 32.3125 C-15.05748367 30.83268378 -15.052921 29.35286594 -15.04882812 27.87304688 C-15.03781271 24.24866443 -15.02055512 20.6243423 -15 17 C-16.65 17 -18.3 17 -20 17 C-20 15.68 -20 14.36 -20 13 C-19.3709375 12.731875 -18.741875 12.46375 -18.09375 12.1875 C-12.1356254 9.45968392 -7.98486801 6.44224097 -3.59375 1.57421875 C-2 0 -2 0 0 0 Z " fill="#FBFAFB" transform="translate(607,200)"/>
<path d="M0 0 C0.98613281 0.82242188 1.97226562 1.64484375 2.98828125 2.4921875 C3.86097656 3.21148437 4.73367188 3.93078125 5.6328125 4.671875 C26.31224884 22.45293364 42.96645304 50.06558648 45.80078125 77.5546875 C45.86265625 78.8540625 45.92453125 80.1534375 45.98828125 81.4921875 C45.32828125 81.4921875 44.66828125 81.4921875 43.98828125 81.4921875 C43.80036011 80.6400769 43.80036011 80.6400769 43.60864258 79.77075195 C38.48773217 56.79516615 30.97156064 36.23874682 14.98828125 18.4921875 C13.96347656 17.2546875 13.96347656 17.2546875 12.91796875 15.9921875 C-5.7361065 -6.03476483 -31.41875021 -16.67347836 -59.01171875 -22.5078125 C-59.81722168 -22.68957031 -60.62272461 -22.87132813 -61.45263672 -23.05859375 C-74.18904564 -25.29433048 -89.42575784 -24.43787747 -102.01171875 -21.5078125 C-103.1925 -21.2396875 -104.37328125 -20.9715625 -105.58984375 -20.6953125 C-137.76541619 -12.75072671 -164.44971901 6.30307815 -181.88623047 34.61328125 C-190.76275554 49.43187929 -195.90984474 65.56792753 -199.01171875 82.4921875 C-199.67171875 82.4921875 -200.33171875 82.4921875 -201.01171875 82.4921875 C-200.45340283 58.5353591 -187.18331719 34.28677348 -172.01171875 16.4921875 C-171.38652344 15.73292969 -170.76132813 14.97367188 -170.1171875 14.19140625 C-165.00677911 8.16507945 -159.24798047 3.318587 -153.01171875 -1.5078125 C-152.21636719 -2.16523437 -151.42101562 -2.82265625 -150.6015625 -3.5 C-138.50408962 -13.04760934 -122.94450887 -19.96221284 -108.01171875 -23.5078125 C-106.903125 -23.80300781 -105.79453125 -24.09820312 -104.65234375 -24.40234375 C-68.72716653 -32.70151444 -28.53981391 -23.22062878 0 0 Z " fill="#EEE4EE" transform="translate(297.01171875,95.5078125)"/>
<path d="M0 0 C0.66 0 1.32 0 2 0 C2.15033691 0.61818604 2.30067383 1.23637207 2.45556641 1.87329102 C11.25916773 37.72317925 27.05244929 67.87312238 59 88 C73.59607271 96.56954058 89.29923748 102.35784867 106 105 C106.77214844 105.13148438 107.54429687 105.26296875 108.33984375 105.3984375 C138.8433565 109.73099017 170.06255538 100.53180613 195.125 83.19921875 C200.41891381 79.1496624 205.20714031 74.6224166 210 70 C210.73089844 69.33226562 211.46179688 68.66453125 212.21484375 67.9765625 C231.02099743 50.32484597 240.15059471 24.64638925 245 0 C245.66 0 246.32 0 247 0 C245.65784202 27.73793157 230.98600147 52.5831513 212 72 C211.32324219 72.72703125 210.64648438 73.4540625 209.94921875 74.203125 C197.45912652 87.33970234 181.86240294 95.88115336 165 102 C163.96359375 102.3815625 162.9271875 102.763125 161.859375 103.15625 C155.29584094 105.37775384 148.70468123 106.6871257 141.875 107.75 C141.06393799 107.87785889 140.25287598 108.00571777 139.41723633 108.13745117 C107.15555211 112.75275906 75.04401687 103.42877831 48.98803711 84.46484375 C36.51730642 75.07263005 26.55314718 64.00954014 18 51 C17.44957031 50.195625 16.89914063 49.39125 16.33203125 48.5625 C7.71707917 35.25898151 -0.74907329 16.16749843 0 0 Z " fill="#EDE2ED" transform="translate(96,209)"/>
<path d="M0 0 C7.40816518 0 10.27855527 0.09670326 16 4 C20.41206482 8.41206482 22.04989465 13.09467195 22.375 19.25 C22.21399209 25.20729284 20.46050034 31.04187037 16.609375 35.671875 C11.41631441 40.31829763 6.80312829 41 0 41 C0 27.47 0 13.94 0 0 Z " fill="#812F81" transform="translate(444,207)"/>
<path d="M0 0 C7.40816518 0 10.27855527 0.09670326 16 4 C20.41206482 8.41206482 22.04989465 13.09467195 22.375 19.25 C22.21399209 25.20729284 20.46050034 31.04187037 16.609375 35.671875 C11.41631441 40.31829763 6.80312829 41 0 41 C0 27.47 0 13.94 0 0 Z " fill="#812F81" transform="translate(444,135)"/>
<path d="M0 0 C1.9592 1.9592 1.23110246 5.71269824 1.28125 8.39453125 C1.30886414 9.51017708 1.30886414 9.51017708 1.33703613 10.64836121 C1.39595765 13.03632473 1.44866283 15.42436211 1.5 17.8125 C1.56776972 20.94415771 1.64153954 24.0755938 1.71875 27.20703125 C1.73232544 27.92695755 1.74590088 28.64688385 1.7598877 29.3886261 C1.77265674 34.30747952 1.77265674 34.30747952 3 39 C4.485 39.495 4.485 39.495 6 40 C6 40.99 6 41.98 6 43 C-1.92 43 -9.84 43 -18 43 C-18 41.68 -18 40.36 -18 39 C-17.0253479 38.04855103 -17.0253479 38.04855103 -16.03100586 37.07788086 C-13.49706888 34.48546138 -13.49665204 33.31950655 -13.50390625 29.75390625 C-13.50326172 28.75166016 -13.50261719 27.74941406 -13.50195312 26.71679688 C-13.52193359 25.67587891 -13.54191406 24.63496094 -13.5625 23.5625 C-13.55541016 22.52544922 -13.54832031 21.48839844 -13.54101562 20.41992188 C-13.58574364 15.06288183 -13.68452927 11.42355909 -17 7 C-17 6.01 -17 5.02 -17 4 C-11.18641182 0.61754869 -6.76294816 -0.90271299 0 0 Z " fill="#FCFBFC" transform="translate(799,139)"/>
<path d="M0 0 C3.05357079 1.61320721 5.23833566 3.03060902 7.375 5.75 C8.82399408 10.96637867 8.70053657 14.64896519 6.25 19.375 C3.04742257 23.11134034 1.49569615 23.83381154 -3.375 24.375 C-7.67080432 23.93060645 -9.67783589 22.70408706 -13 20 C-15.8288298 15.7567553 -15.65268001 11.98265471 -15 7 C-11.33070065 0.70977255 -7.11202755 -0.73572699 0 0 Z " fill="#823082" transform="translate(714,190)"/>
<path d="M0 0 C0.78375 0.04125 1.5675 0.0825 2.375 0.125 C7.17626071 7.47693046 7.29698076 14.50447991 6.375 23.125 C5.51009183 26.4390104 4.56864603 29.4574181 2.375 32.125 C0.3671875 32.94921875 0.3671875 32.94921875 -1.625 33.125 C-5.36597499 30.37428309 -6.41987096 27.5072874 -7.625 23.125 C-8.28587486 15.64938956 -8.51020566 8.69996343 -4.625 2.125 C-2.625 0.125 -2.625 0.125 0 0 Z " fill="#802C80" transform="translate(654.625,144.875)"/>
<path d="M0 0 C10.74695122 -0.42987805 10.74695122 -0.42987805 15 3 C16 4 16 4 16.25 6.875 C16 10 16 10 14.5 11.875 C14.005 12.24625 13.51 12.6175 13 13 C14.39759905 16.54518884 14.39759905 16.54518884 16 20 C13.625 19.8125 13.625 19.8125 11 19 C9.6875 16.4375 9.6875 16.4375 9 14 C7.02 14 5.04 14 3 14 C3 15.65 3 17.3 3 19 C2.01 19 1.02 19 0 19 C0 12.73 0 6.46 0 0 Z " fill="#F4EDF4" transform="translate(205,333)"/>
<path d="M0 0 C1.48009643 0.97776067 2.95905144 1.9572494 4.4375 2.9375 C5.67306641 3.75541016 5.67306641 3.75541016 6.93359375 4.58984375 C9 6 9 6 10 7 C10.35897436 13.46153846 10.35897436 13.46153846 8 17 C5.375 17.6875 5.375 17.6875 3 18 C2.67 19.98 2.34 21.96 2 24 C1.01 23.67 0.02 23.34 -1 23 C-1 20.36 -1 17.72 -1 15 C-2.32 14.67 -3.64 14.34 -5 14 C-5.99 15.485 -5.99 15.485 -7 17 C-8.32 16.67 -9.64 16.34 -11 16 C-7.89842047 10.16903048 -4.14443819 5.13398101 0 0 Z " fill="#F3EDF3" transform="translate(131,303)"/>
<path d="M0 0 C1.9375 1 1.9375 1 3 3 C3.23595284 5.71882023 3.13477523 8.25957022 3 11 C4.98 11.66 6.96 12.32 9 13 C8.34 13.66 7.68 14.32 7 15 C4.3984375 14.9765625 4.3984375 14.9765625 1.375 14.625 C0.37210938 14.51414062 -0.63078125 14.40328125 -1.6640625 14.2890625 C-2.82035156 14.14597656 -2.82035156 14.14597656 -4 14 C-3.34 15.98 -2.68 17.96 -2 20 C-3.32 20.33 -4.64 20.66 -6 21 C-7.39521556 18.76046944 -8.76562784 16.5111339 -10.125 14.25 C-10.52332031 13.61578125 -10.92164063 12.9815625 -11.33203125 12.328125 C-12.4453125 10.453125 -12.4453125 10.453125 -14 7 C-13.20139707 3.98640403 -12.24946537 3.1995723 -9.8125 1.25 C-6.28708511 -0.31685106 -3.82034174 -0.42448242 0 0 Z " fill="#F6F0F6" transform="translate(148,58)"/>
<path d="M0 0 C5.65863105 -0.29268781 9.02222358 -0.03522952 14 3 C15 4 15 4 15.25 7.3125 C15 11 15 11 13.375 13.125 C12.92125 13.74375 12.4675 14.3625 12 15 C12.70957237 17.73398135 12.70957237 17.73398135 14 20 C12.1875 19.75 12.1875 19.75 10 19 C9.525625 18.34 9.05125 17.68 8.5625 17 C7.12113694 14.74724544 7.12113694 14.74724544 4.3125 14.25 C3.549375 14.1675 2.78625 14.085 2 14 C2 15.65 2 17.3 2 19 C1.01 19 0.02 19 -1 19 C-1.09507063 12.56688704 -1.15316726 6.34241995 0 0 Z " fill="#F3EDF3" transform="translate(225,37)"/>
<path d="M0 0 C4.91935902 4.11619836 9.52647956 8.40410362 14 13 C13.01 13.99 12.02 14.98 11 16 C8.69 13.69 6.38 11.38 4 9 C4.33 12.63 4.66 16.26 5 20 C1.37 19.34 -2.26 18.68 -6 18 C-3.69 20.31 -1.38 22.62 1 25 C0.67 25.99 0.34 26.98 0 28 C-3.90285767 26.41332422 -6.33520982 23.86649519 -9.25 20.875 C-10.14203125 19.96492188 -11.0340625 19.05484375 -11.953125 18.1171875 C-12.62859375 17.41851562 -13.3040625 16.71984375 -14 16 C-13.67 15.01 -13.34 14.02 -13 13 C-11.58297487 13.14230808 -10.1663904 13.28900746 -8.75 13.4375 C-7.56664062 13.55931641 -7.56664062 13.55931641 -6.359375 13.68359375 C-4.17635361 13.97634993 -2.1226818 14.42064419 0 15 C-0.16757812 14.08476562 -0.33515625 13.16953125 -0.5078125 12.2265625 C-0.81332031 10.44378906 -0.81332031 10.44378906 -1.125 8.625 C-1.33382813 7.44164062 -1.54265625 6.25828125 -1.7578125 5.0390625 C-1.83773438 4.03617187 -1.91765625 3.03328125 -2 2 C-1.34 1.34 -0.68 0.68 0 0 Z " fill="#F1E9F1" transform="translate(327,286)"/>
<path d="M0 0 C5.356906 0.56446737 10.4984609 1.68143511 14 6 C14 9.625 14 9.625 13 13 C9.97455666 15.01696222 9.38932618 15.25811096 6 15.1875 C5.319375 15.18105469 4.63875 15.17460937 3.9375 15.16796875 C2 15 2 15 -1 14 C-1.33 15.65 -1.66 17.3 -2 19 C-2.99 18.67 -3.98 18.34 -5 18 C-2.96875 2.96875 -2.96875 2.96875 0 0 Z " fill="#F3ECF3" transform="translate(170,326)"/>
<path d="M0 0 C1.734375 1.2421875 1.734375 1.2421875 3 3 C3.109375 5.15625 3.109375 5.15625 2.75 7.5 C2.64171875 8.2734375 2.5334375 9.046875 2.421875 9.84375 C2 12 2 12 1 15 C2.32 15.33 3.64 15.66 5 16 C5 16.99 5 17.98 5 19 C0.3110507 18.44380331 -3.19924267 17.11817327 -7.375 14.9375 C-8.43460937 14.38964844 -9.49421875 13.84179688 -10.5859375 13.27734375 C-11.38257812 12.85582031 -12.17921875 12.43429688 -13 12 C-12.57405412 10.55903414 -12.13373367 9.12231288 -11.6875 7.6875 C-11.44386719 6.88699219 -11.20023437 6.08648437 -10.94921875 5.26171875 C-8.64232799 -0.2349469 -5.75520647 -0.61662926 0 0 Z " fill="#F6F1F6" transform="translate(87,126)"/>
<path d="M0 0 C2.5347226 4.18229229 2.3819224 8.26416221 2 13 C0.875 15 0.875 15 -1 16 C-4.64494732 16.54286449 -6.30671544 16.50591036 -9.3125 14.3125 C-11.14301602 11.80401508 -11.66009204 10.05917167 -12 7 C-13.98 7.33 -15.96 7.66 -18 8 C-18.33 7.01 -18.66 6.02 -19 5 C-16.58848443 3.96520787 -14.17205531 2.9470628 -11.75 1.9375 C-11.06808594 1.64294922 -10.38617188 1.34839844 -9.68359375 1.04492188 C-3.71678586 -1.41711051 -3.71678586 -1.41711051 0 0 Z " fill="#F5F0F5" transform="translate(85,238)"/>
<path d="M0 0 C0.66 0.33 1.32 0.66 2 1 C2 5.95 2 10.9 2 16 C3.7325 15.154375 5.465 14.30875 7.25 13.4375 C12.41923077 10.91442308 12.41923077 10.91442308 15.359375 11.34765625 C15.90078125 11.56292969 16.4421875 11.77820313 17 12 C14.16417965 17.23536064 11.17985979 22.70867728 7 27 C6.01 27 5.02 27 4 27 C4.61454696 23.00544473 6.70646737 20.25533664 9 17 C7.9275 17.495 6.855 17.99 5.75 18.5 C2.74583192 19.88653911 1.54065105 20 -2 20 C-2 16.7 -2 13.4 -2 10 C-3.65 12.31 -5.3 14.62 -7 17 C-8.32 16.67 -9.64 16.34 -11 16 C-9.92044741 14.26847042 -8.83617488 12.53988316 -7.75 10.8125 C-7.14671875 9.84957031 -6.5434375 8.88664062 -5.921875 7.89453125 C-4.08362455 5.12594673 -2.11574051 2.56042049 0 0 Z " fill="#F4EEF4" transform="translate(303,61)"/>
<path d="M0 0 C2 1.625 2 1.625 3 4 C2.93108944 7.85899147 2.52415508 10.21376738 0.375 13.4375 C-2.98693999 15.64930263 -5.05974542 15.6332552 -9 15 C-11.66710047 12.6064483 -12.79687397 11.01563017 -13.5 7.5 C-12.83157196 4.15785981 -11.3162448 2.45249449 -9 0 C-5.8168485 -1.59157575 -3.38676935 -0.77242108 0 0 Z " fill="#F7F3F7" transform="translate(798,120)"/>
<path d="M0 0 C5.45156722 3.27094033 9.61869443 7.41853326 14 12 C13.67 12.99 13.34 13.98 13 15 C8.05 15 3.1 15 -2 15 C0.31 17.31 2.62 19.62 5 22 C4.01 22.99 3.02 23.98 2 25 C1.39671875 24.38511719 0.7934375 23.77023438 0.171875 23.13671875 C-0.62734375 22.32847656 -1.4265625 21.52023438 -2.25 20.6875 C-3.03890625 19.88699219 -3.8278125 19.08648437 -4.640625 18.26171875 C-6.67394067 16.31256349 -8.70601078 14.62578594 -11 13 C-10.67 12.01 -10.34 11.02 -10 10 C-4.72 10 0.56 10 6 10 C3.36 7.69 0.72 5.38 -2 3 C-1.34 2.01 -0.68 1.02 0 0 Z " fill="#F4EDF4" transform="translate(112,80)"/>
<path d="M0 0 C-0.45224761 5.91492272 -1.1582605 11.35199888 -3 17 C-2.46890625 16.55527344 -1.9378125 16.11054687 -1.390625 15.65234375 C-0.68421875 15.08644531 0.0221875 14.52054688 0.75 13.9375 C1.44609375 13.36902344 2.1421875 12.80054687 2.859375 12.21484375 C5 11 5 11 7.265625 11.31640625 C7.83796875 11.54199219 8.4103125 11.76757812 9 12 C9 12.66 9 13.32 9 14 C6.76470988 15.82779998 4.5366251 17.51881113 2.1875 19.1875 C1.54490234 19.66380859 0.90230469 20.14011719 0.24023438 20.63085938 C-1.44816124 21.83985561 -3.22077657 22.92915191 -5 24 C-5.99 23.67 -6.98 23.34 -8 23 C-7.40984815 17.49191603 -6.43336231 12.35121931 -5 7 C-5.45890625 7.44472656 -5.9178125 7.88945313 -6.390625 8.34765625 C-7.00421875 8.91355469 -7.6178125 9.47945312 -8.25 10.0625 C-8.85328125 10.63097656 -9.4565625 11.19945313 -10.078125 11.78515625 C-12 13 -12 13 -14.234375 12.68359375 C-14.81703125 12.45800781 -15.3996875 12.23242188 -16 12 C-16 11.34 -16 10.68 -16 10 C-13.74185152 8.20173555 -11.48722261 6.5253199 -9.125 4.875 C-8.47402344 4.40707031 -7.82304687 3.93914062 -7.15234375 3.45703125 C-2.26412172 0 -2.26412172 0 0 0 Z " fill="#F4EEF4" transform="translate(341,94)"/>
<path d="M0 0 C0.58007812 0.2371875 1.16015625 0.474375 1.7578125 0.71875 C3.08501136 7.68654403 2.84606631 14.64863911 2.7578125 21.71875 C1.7678125 21.38875 0.7778125 21.05875 -0.2421875 20.71875 C-0.2421875 19.06875 -0.2421875 17.41875 -0.2421875 15.71875 C-1.86389989 15.32977839 -3.48973675 14.95796702 -5.1171875 14.59375 C-6.02210938 14.38492188 -6.92703125 14.17609375 -7.859375 13.9609375 C-9.03886719 13.84105469 -9.03886719 13.84105469 -10.2421875 13.71875 C-10.9021875 14.37875 -11.5621875 15.03875 -12.2421875 15.71875 C-14.3671875 15.34375 -14.3671875 15.34375 -16.2421875 14.71875 C-12.96864975 10.7905047 -9.62013365 6.94473017 -6.1171875 3.21875 C-5.47523438 2.5278125 -4.83328125 1.836875 -4.171875 1.125 C-2.2421875 -0.28125 -2.2421875 -0.28125 0 0 Z " fill="#F2EBF2" transform="translate(274.2421875,47.28125)"/>
<path d="M0 0 C0.33 0 0.66 0 1 0 C1.2475 1.0725 1.495 2.145 1.75 3.25 C3.03453071 7.10359212 3.80154035 8.60115526 7 11 C10.13350717 12.26784124 10.13350717 12.26784124 13 13 C10.79610856 14.14275852 8.75510795 15.07579992 6.375 15.8125 C3.77729712 16.806542 3.77729712 16.806542 2.8125 19.5 C2.544375 20.325 2.27625 21.15 2 22 C1.34 22.66 0.68 23.32 0 24 C-0.66 22.906875 -1.32 21.81375 -2 20.6875 C-5.01140757 16.40036646 -8.05238591 15.42558372 -13 14 C-10 12 -10 12 -7.0625 10.9375 C-2.74396779 8.20536738 -1.67221777 4.69204634 0 0 Z " fill="#F5F0F5" transform="translate(368,183)"/>
<path d="M0 0 C7.02673515 0.50343987 14.01940909 1.04187968 21 2 C20.67 3.32 20.34 4.64 20 6 C19.2575 5.87625 18.515 5.7525 17.75 5.625 C14.72320397 5.74169469 14.72320397 5.74169469 12.5625 8.625 C10.62344982 11.91780528 10.62344982 11.91780528 11.75 15.375 C12.36875 16.674375 12.36875 16.674375 13 18 C11.68 18 10.36 18 9 18 C7.01373349 15.77918184 5.36582963 13.68418168 3.6875 11.25 C2.98657227 10.29867187 2.98657227 10.29867187 2.27148438 9.328125 C-1.09469088 4.55481888 -1.09469088 4.55481888 -0.62182617 1.78417969 C-0.41662354 1.19540039 -0.2114209 0.60662109 0 0 Z " fill="#F5EFF5" transform="translate(86,111)"/>
<path d="M0 0 C0.66 0 1.32 0 2 0 C5 4.38461538 5 4.38461538 5 7 C7.97 7.99 10.94 8.98 14 10 C14 10.33 14 10.66 14 11 C12.6696875 11.3403125 12.6696875 11.3403125 11.3125 11.6875 C7.51769499 13.19110199 5.63349146 14.91505286 3 18 C2.67 18.99 2.34 19.98 2 21 C1.34 21 0.68 21 0 21 C-0.309375 20.0925 -0.61875 19.185 -0.9375 18.25 C-3.76194955 13.79935222 -7.16213617 12.72418627 -12 11 C-9 9 -9 9 -6.5625 7.75 C-3.4509615 5.62504687 -2.02302491 3.13917659 0 0 Z " fill="#F7F2F7" transform="translate(70,186)"/>
<path d="M0 0 C0.70125 -0.01675781 1.4025 -0.03351563 2.125 -0.05078125 C2.74375 0.06910156 3.3625 0.18898437 4 0.3125 C6 3.3125 6 3.3125 5.875 6.8125 C5 10.3125 5 10.3125 3.125 12.1875 C-0.08715212 13.88805112 -2.60795642 14.43368104 -6.1875 14.375 C-8.0746875 14.3440625 -8.0746875 14.3440625 -10 14.3125 C-10.50547389 9.0050242 -9.22743563 6.48918141 -6 2.3125 C-3.67471713 -0.01278287 -3.15334102 0.01738975 0 0 Z " fill="#802C80" transform="translate(514,216.6875)"/>
<path d="M0 0 C2.32398165 1.23313312 3.85754518 2.66738553 5.6640625 4.578125 C6.27765625 5.21878906 6.89125 5.85945313 7.5234375 6.51953125 C7.98234375 7.01324219 8.44125 7.50695312 8.9140625 8.015625 C8.5840625 9.005625 8.2540625 9.995625 7.9140625 11.015625 C4.47811084 9.48853537 1.79493796 7.41635455 -1.0859375 5.015625 C-1.94952373 6.79704247 -1.94952373 6.79704247 -2.0859375 9.015625 C-0.23161663 11.28706574 -0.23161663 11.28706574 1.9140625 13.015625 C1.5840625 14.005625 1.2540625 14.995625 0.9140625 16.015625 C-0.55078125 14.68098958 -2.015625 13.34635417 -3.48046875 12.01171875 C-4.01027344 11.68300781 -4.54007812 11.35429688 -5.0859375 11.015625 C-6.0759375 11.345625 -7.0659375 11.675625 -8.0859375 12.015625 C-6.64340093 15.38154366 -4.75329023 17.52609579 -2.0859375 20.015625 C-2.4159375 21.005625 -2.7459375 21.995625 -3.0859375 23.015625 C-6.30118055 21.60717782 -8.40777618 19.91217714 -10.8359375 17.390625 C-11.44953125 16.75898437 -12.063125 16.12734375 -12.6953125 15.4765625 C-13.15421875 14.99445313 -13.613125 14.51234375 -14.0859375 14.015625 C-12.49637466 10.20246022 -10.07833053 7.642841 -7.2109375 4.703125 C-6.34726562 3.79949219 -5.48359375 2.89585938 -4.59375 1.96484375 C-2.0859375 0.015625 -2.0859375 0.015625 0 0 Z " fill="#EFE5EF" transform="translate(326.0859375,78.984375)"/>
<path d="M0 0 C0.45772527 5.72156582 -0.45965913 8.49411162 -4 13 C-5 14 -5 14 -8.375 14.25 C-12 14 -12 14 -13.9375 12.875 C-15.52990283 10.06487736 -15.45319325 8.17235276 -15 5 C-13.24152913 2.67630635 -11.88296562 1.36536508 -9.1875 0.25 C-6.11705607 -0.10090788 -3.08660641 -0.05935782 0 0 Z " fill="#802C80" transform="translate(649,233)"/>
<path d="M0 0 C0.45772527 5.72156582 -0.45965913 8.49411162 -4 13 C-5 14 -5 14 -8.375 14.25 C-12 14 -12 14 -13.9375 12.875 C-15.52990283 10.06487736 -15.45319325 8.17235276 -15 5 C-13.24152913 2.67630635 -11.88296562 1.36536508 -9.1875 0.25 C-6.11705607 -0.10090788 -3.08660641 -0.05935782 0 0 Z " fill="#802C80" transform="translate(754,161)"/>
<path d="M0 0 C1.58367747 0.14204741 3.16693318 0.28880153 4.75 0.4375 C5.63171875 0.51871094 6.5134375 0.59992188 7.421875 0.68359375 C9.69350452 0.96238465 11.79851823 1.38790577 14 2 C14 2.99 14 3.98 14 5 C10.7 4.67 7.4 4.34 4 4 C4 5.32 4 6.64 4 8 C6.64 8.33 9.28 8.66 12 9 C12 9.99 12 10.98 12 12 C8.7 11.67 5.4 11.34 2 11 C2 12.65 2 14.3 2 16 C5.3 16.66 8.6 17.32 12 18 C12 18.99 12 19.98 12 21 C7.38 20.34 2.76 19.68 -2 19 C-1 6.28571429 -1 6.28571429 0 0 Z " fill="#F0E7F0" transform="translate(188,331)"/>
<path d="M0 0 C0 0.66 0 1.32 0 2 C-4.455 3.485 -4.455 3.485 -9 5 C-8.67 6.32 -8.34 7.64 -8 9 C-5.03 8.34 -2.06 7.68 1 7 C1.33 7.99 1.66 8.98 2 10 C-0.90600261 11.25664978 -2.79604584 12 -6 12 C-5.67 13.65 -5.34 15.3 -5 17 C-4.45730469 16.7834375 -3.91460937 16.566875 -3.35546875 16.34375 C-2.64003906 16.0653125 -1.92460937 15.786875 -1.1875 15.5 C-0.47980469 15.2215625 0.22789062 14.943125 0.95703125 14.65625 C3 14 3 14 6 14 C6 14.99 6 15.98 6 17 C-0.435 19.475 -0.435 19.475 -7 22 C-8.17112946 19.37690901 -9.33705964 16.75171858 -10.5 14.125 C-10.83386719 13.37863281 -11.16773438 12.63226563 -11.51171875 11.86328125 C-11.82753906 11.14785156 -12.14335937 10.43242188 -12.46875 9.6953125 C-12.76201172 9.03547363 -13.05527344 8.37563477 -13.35742188 7.69580078 C-14 6 -14 6 -14 4 C-12.23494565 3.13395466 -10.46271926 2.28251358 -8.6875 1.4375 C-7.70136719 0.96183594 -6.71523437 0.48617187 -5.69921875 -0.00390625 C-3 -1 -3 -1 0 0 Z " fill="#F2EBF2" transform="translate(166,48)"/>
<path d="M0 0 C4.86896303 0.59619955 9.32790951 1.56976822 14 3 C14 3.99 14 4.98 14 6 C10.37 5.34 6.74 4.68 3 4 C3 5.65 3 7.3 3 9 C5.64 9.33 8.28 9.66 11 10 C11 10.99 11 11.98 11 13 C7.7 12.67 4.4 12.34 1 12 C1 13.65 1 15.3 1 17 C4.3 17.33 7.6 17.66 11 18 C11 18.99 11 19.98 11 21 C9.22880197 20.85866501 7.45804713 20.71176792 5.6875 20.5625 C4.70136719 20.48128906 3.71523437 20.40007813 2.69921875 20.31640625 C0 20 0 20 -3 19 C-2.37679879 12.56025419 -1.35991738 6.32427599 0 0 Z " fill="#F1E9F1" transform="translate(246,40)"/>
<path d="M0 0 C0 0.99 0 1.98 0 3 C-3.3 3.66 -6.6 4.32 -10 5 C-9.67 6.32 -9.34 7.64 -9 9 C-4.545 8.505 -4.545 8.505 0 8 C0 8.99 0 9.98 0 11 C-2.70879335 12.35439668 -5.00933268 12.06501451 -8 12 C-8 13.98 -8 15.96 -8 18 C-7.113125 17.67 -6.22625 17.34 -5.3125 17 C-2.29076653 16.08777857 -0.11626294 15.81669042 3 16 C3 16.99 3 17.98 3 19 C-1.89054085 20.34911472 -5.89370776 21.11704968 -11 21 C-11.50643553 18.77228658 -12.0048962 16.54275924 -12.5 14.3125 C-12.7784375 13.07113281 -13.056875 11.82976562 -13.34375 10.55078125 C-13.89354126 7.57601782 -14.13795705 5.00631398 -14 2 C-12.04200486 1.66468585 -10.08359226 1.33180857 -8.125 1 C-6.48917969 0.7215625 -6.48917969 0.7215625 -4.8203125 0.4375 C-2 0 -2 0 0 0 Z " fill="#F1EAF1" transform="translate(255,329)"/>
<path d="M0 0 C0 0.99 0 1.98 0 3 C-3.37097383 4.49821059 -5.20442119 5 -9 5 C-8.67 6.32 -8.34 7.64 -8 9 C-3.545 8.505 -3.545 8.505 1 8 C1 8.99 1 9.98 1 11 C-2.08809695 12.76462683 -3.23312136 13 -7 13 C-6.67 14.65 -6.34 16.3 -6 18 C-5.113125 17.67 -4.22625 17.34 -3.3125 17 C-0.29076653 16.08777857 1.88373706 15.81669042 5 16 C5 16.99 5 17.98 5 19 C3.23050388 19.50471197 1.45934777 20.00360685 -0.3125 20.5 C-1.29863281 20.7784375 -2.28476563 21.056875 -3.30078125 21.34375 C-6 22 -6 22 -9 22 C-9.67493341 19.77332235 -10.33963044 17.54354023 -11 15.3125 C-11.37125 14.07113281 -11.7425 12.82976563 -12.125 11.55078125 C-12.87703457 8.4989981 -13.19034899 6.11101638 -13 3 C-11.2092015 2.49689942 -9.41733089 1.99761372 -7.625 1.5 C-6.62726563 1.2215625 -5.62953125 0.943125 -4.6015625 0.65625 C-2 0 -2 0 0 0 Z " fill="#F6F0F6" transform="translate(185,41)"/>
<path d="M0 0 C4.2205965 1.3595759 8.0681098 2.94043847 12 5 C12 5.99 12 6.98 12 8 C8.44219804 7.39009109 5.3171411 6.4216319 2 5 C1.67 5.99 1.34 6.98 1 8 C1.99 8.598125 2.98 9.19625 4 9.8125 C4.99 10.534375 5.98 11.25625 7 12 C7 12.99 7 13.98 7 15 C6.2575 14.690625 5.515 14.38125 4.75 14.0625 C2.49307824 13.1905075 0.3549847 12.52332993 -2 12 C-2.66 13.32 -3.32 14.64 -4 16 C-3.071875 16.28875 -2.14375 16.5775 -1.1875 16.875 C2 18 2 18 5 20 C4.67 20.99 4.34 21.98 4 23 C0.04 21.02 -3.92 19.04 -8 17 C-7.05045952 12.25229759 -5.89268482 9.74971488 -3.4375 5.6875 C-2.79683594 4.61886719 -2.15617188 3.55023438 -1.49609375 2.44921875 C-1.00238281 1.64097656 -0.50867188 0.83273437 0 0 Z " fill="#F3EDF3" transform="translate(146,314)"/>
<path d="M0 0 C0.99 0 1.98 0 3 0 C1.7874262 3.72433382 0.49140021 7.37802806 -1 11 C0.32 11 1.64 11 3 11 C4.32 8.69 5.64 6.38 7 4 C7.66 4.33 8.32 4.66 9 5 C8.41196203 8.02419525 7.77321882 11.01758453 7 14 C7.99 14.33 8.98 14.66 10 15 C11.65 12.36 13.3 9.72 15 7 C15.99 7.33 16.98 7.66 18 8 C16.02 11.96 14.04 15.92 12 20 C7.24025378 19.04805076 4.37420203 17.76344557 0.1875 15.4375 C-0.40998047 15.10814453 -1.00746094 14.77878906 -1.62304688 14.43945312 C-3.08533998 13.63226733 -4.5431399 12.81695083 -6 12 C-4.02 8.04 -2.04 4.08 0 0 Z " fill="#F5EFF5" transform="translate(349,251)"/>
<path d="M0 0 C0.2475 0.53625 0.495 1.0725 0.75 1.625 C3.87289056 7.91824623 3.87289056 7.91824623 9.75 11.375 C10.8225 11.58125 11.895 11.7875 13 12 C10 14 10 14 6.9375 15.4375 C3.7770602 16.82080155 3.7770602 16.82080155 2 20 C1.61500109 21.65549531 1.27206865 23.3222433 1 25 C0.67 25 0.34 25 0 25 C-0.226875 24.113125 -0.45375 23.22625 -0.6875 22.3125 C-2.62331533 17.42687083 -5.6907959 14.87280273 -10 12 C-8.2421875 11.05598958 -6.484375 10.11197917 -4.7265625 9.16796875 C-2.03999925 7.35058773 -1.09693082 5.41680252 -0.375 2.3125 C-0.25125 1.549375 -0.1275 0.78625 0 0 Z " fill="#F8F2F7" transform="translate(262,109)"/>
<path d="M0 0 C1.0828125 0.37125 1.0828125 0.37125 2.1875 0.75 C2.1875 1.41 2.1875 2.07 2.1875 2.75 C-1.2775 4.235 -1.2775 4.235 -4.8125 5.75 C-4.8125 6.74 -4.8125 7.73 -4.8125 8.75 C-4.131875 8.605625 -3.45125 8.46125 -2.75 8.3125 C-1.2959375 8.0340625 -1.2959375 8.0340625 0.1875 7.75 C1.38375 7.5025 2.58 7.255 3.8125 7 C7.1875 6.75 7.1875 6.75 9.1875 7.8125 C10.1875 9.75 10.1875 9.75 10.1875 12.6875 C8.92998376 16.53864348 7.6389926 17.67910444 4.1875 19.75 C0.875 20.5 0.875 20.5 -1.8125 20.75 C-1.8125 19.76 -1.8125 18.77 -1.8125 17.75 C-0.678125 17.3375 0.45625 16.925 1.625 16.5 C5.28293384 15.18314602 5.28293384 15.18314602 6.125 12.5625 C6.145625 11.964375 6.16625 11.36625 6.1875 10.75 C5.15625 11.08 4.125 11.41 3.0625 11.75 C-0.31963792 12.70358453 -3.28101884 13.16063734 -6.8125 12.75 C-8.8125 9.75 -8.8125 9.75 -8.75 6.8125 C-7.3451291 2.22325505 -4.99801398 -0.44426791 0 0 Z " fill="#F4EDF4" transform="translate(308.8125,304.25)"/>
<path d="M0 0 C0.99 0.33 1.98 0.66 3 1 C1.64988233 4.00977451 0.10394115 6.08074461 -2.1875 8.4375 C-4.7399991 11.19891127 -4.7399991 11.19891127 -4.875 14.9375 C-4.58625 15.618125 -4.2975 16.29875 -4 17 C-1.74681695 17.90259 -1.74681695 17.90259 1 18 C3.57087891 16.15637744 3.57087891 16.15637744 5.8125 13.5625 C6.60269531 12.71816406 7.39289063 11.87382812 8.20703125 11.00390625 C8.79871094 10.34261719 9.39039062 9.68132812 10 9 C10.99 9.99 11.98 10.98 13 12 C11.54474941 13.48219967 10.085701 14.96067139 8.625 16.4375 C7.81289062 17.26121094 7.00078125 18.08492188 6.1640625 18.93359375 C3.63394032 21.34954074 2.64535972 21.91395204 -0.8125 22.375 C-4 22 -4 22 -6.875 19.9375 C-9 17 -9 17 -9.875 13.8125 C-8.49804908 7.81292812 -4.29607928 4.23641151 0 0 Z " fill="#F5EFF5" transform="translate(115,289)"/>
<path d="M0 0 C3.125 0.4375 3.125 0.4375 5.5 2.5 C7.46616018 6.05421263 7.43890173 8.435253 7.125 12.4375 C6.135 12.4375 5.145 12.4375 4.125 12.4375 C4.01542969 11.87160156 3.90585937 11.30570313 3.79296875 10.72265625 C3.63441406 9.98917969 3.47585938 9.25570312 3.3125 8.5 C3.16167969 7.76910156 3.01085937 7.03820312 2.85546875 6.28515625 C2.61441406 5.67542969 2.37335938 5.06570312 2.125 4.4375 C1.135 4.1075 0.145 3.7775 -0.875 3.4375 C-0.85179687 4.28054687 -0.82859375 5.12359375 -0.8046875 5.9921875 C-0.77761719 7.63574219 -0.77761719 7.63574219 -0.75 9.3125 C-0.72679687 10.40304688 -0.70359375 11.49359375 -0.6796875 12.6171875 C-0.875 15.4375 -0.875 15.4375 -2.875 17.4375 C-5.8125 17.8125 -5.8125 17.8125 -8.875 17.4375 C-11.91324343 15.02785866 -12.13473366 12.35819764 -12.5625 8.6875 C-12.67895353 7.27179039 -12.78714662 5.85527182 -12.875 4.4375 C-11.885 4.4375 -10.895 4.4375 -9.875 4.4375 C-9.215 7.7375 -8.555 11.0375 -7.875 14.4375 C-6.885 14.1075 -5.895 13.7775 -4.875 13.4375 C-4.89820313 12.66664063 -4.92140625 11.89578125 -4.9453125 11.1015625 C-4.96335937 10.09867188 -4.98140625 9.09578125 -5 8.0625 C-5.02320313 7.06476563 -5.04640625 6.06703125 -5.0703125 5.0390625 C-4.78341692 1.21761332 -3.71886541 0.5659143 0 0 Z " fill="#F2EAF2" transform="translate(357.875,129.5625)"/>
<path d="M0 0 C0.99 0.33 1.98 0.66 3 1 C2.525625 1.7425 2.05125 2.485 1.5625 3.25 C0.22130673 5.61050015 -0.512312 7.36648477 -1 10 C2.38575024 8.9654652 3.79557993 8.27695622 5.9375 5.375 C8 3 8 3 11.125 2.5625 C14 3 14 3 16 5 C16.17024827 9.19945732 15.62864939 12.96901499 13.4375 16.5625 C12.963125 17.036875 12.48875 17.51125 12 18 C11.01 17.67 10.02 17.34 9 17 C9.309375 16.46375 9.61875 15.9275 9.9375 15.375 C11.17827439 12.6015043 11.5909675 9.99957163 12 7 C9.07992185 8.14717356 7.96833498 9.042901 6.0625 11.625 C4 14 4 14 1.4375 14.5 C-1 14 -1 14 -2.875 13 C-4.47121151 10.16229065 -4.04269681 8.02502318 -3.52734375 4.875 C-2.87856434 2.56822876 -1.96558135 1.36736094 0 0 Z " fill="#F3EBF3" transform="translate(356,236)"/>
<path d="M0 0 C2.70567626 1.82339052 4.53728718 3.07457436 6 6 C6.039992 7.99960012 6.04346799 10.00047242 6 12 C5.01 12 4.02 12 3 12 C2.34 9.36 1.68 6.72 1 4 C-3.0100934 3.82135369 -3.0100934 3.82135369 -7 4 C-9.35639408 5.93889246 -9.35639408 5.93889246 -9.375 9.4375 C-9.4029439 13.04734181 -9.4029439 13.04734181 -7 14.75 C-6.34 15.1625 -5.68 15.575 -5 16 C-5 16.99 -5 17.98 -5 19 C-7.25 18.875 -7.25 18.875 -10 18 C-12.55476736 15.03094604 -13.83928551 12.85714396 -14.5625 9 C-13.76917613 4.76893936 -11.99780451 3.0691808 -9 0 C-5.81229009 -1.59385496 -3.40972958 -0.75129635 0 0 Z " fill="#F1E9F1" transform="translate(95,264)"/>
<path d="M0 0 C4.62 0 9.24 0 14 0 C14 0.99 14 1.98 14 3 C10.7 3 7.4 3 4 3 C4 4.98 4 6.96 4 9 C7.3 9 10.6 9 14 9 C14 9.99 14 10.98 14 12 C11.03 12 8.06 12 5 12 C5 14.64 5 17.28 5 20 C3.68 20 2.36 20 1 20 C0.29867087 13.29980211 -0.11044961 6.73742646 0 0 Z " fill="#EFE6EF" transform="translate(225,333)"/>
<path d="M0 0 C3.375 0.9375 3.375 0.9375 5.375 3.9375 C5.18266941 7.01478941 4.8467187 9.19268099 3.1875 11.8125 C0.47475061 13.49627549 -1.50375511 13.32765561 -4.625 12.9375 C-6.5 11.8125 -6.5 11.8125 -7.625 9.9375 C-8.16352618 6.32168138 -8.04736225 4.59638511 -6.0625 1.5 C-3.625 -0.0625 -3.625 -0.0625 0 0 Z " fill="#F8F5F8" transform="translate(533.625,169.0625)"/>
<path d="M0 0 C2.5 0.25 2.5 0.25 4.5 2.25 C5.06911904 5.63476063 5.02663134 8.86147311 4.5 12.25 C2.25 15.375 2.25 15.375 -0.5 17.25 C-1.82 17.25 -3.14 17.25 -4.5 17.25 C-4.55383848 14.79137599 -4.59359038 12.3339245 -4.625 9.875 C-4.64175781 9.17632812 -4.65851562 8.47765625 -4.67578125 7.7578125 C-4.69344267 5.92102514 -4.60303261 4.08398037 -4.5 2.25 C-2.5 0.25 -2.5 0.25 0 0 Z " fill="#7E297E" transform="translate(704.5,136.75)"/>
<path d="M0 0 C0.33 1.32 0.66 2.64 1 4 C-2.02734375 4.24414062 -2.02734375 4.24414062 -5.0546875 4.48828125 C-7.39519216 4.87393036 -7.39519216 4.87393036 -9 8 C-9.35242362 10.81938897 -9.34645957 12.38860077 -7.9375 14.875 C-4.82397293 16.68285443 -2.4046074 15.77648941 1 15 C3.33588323 14.04415562 3.33588323 14.04415562 5 13 C5.33 13.66 5.66 14.32 6 15 C2.58600682 18.52779296 1.17807868 19.86481064 -3.8125 20.4375 C-7.48419817 20.37730823 -7.96171887 20.03190094 -11 17.5 C-13.71973922 13.58690581 -13.73944481 10.65850231 -13 6 C-9.13146225 1.08591151 -6.12374912 -0.16550673 0 0 Z " fill="#F5EFF5" transform="translate(273,325)"/>
<path d="M0 0 C3.30428394 1.92249248 5.45194483 3.3039476 6.66015625 7.04296875 C7 9.1875 7 9.1875 7 13 C6.34 13.66 5.68 14.32 5 15 C4 14 4 14 3.9375 10.4375 C3.958125 9.303125 3.97875 8.16875 4 7 C0.9254644 7.7763932 0.9254644 7.7763932 -1 10 C-1.33 9.34 -1.66 8.68 -2 8 C-4.58605332 7.5316735 -4.58605332 7.5316735 -7.5625 7.375 C-8.57441406 7.30023438 -9.58632813 7.22546875 -10.62890625 7.1484375 C-11.80259766 7.07496094 -11.80259766 7.07496094 -13 7 C-10.72387689 0.34671706 -6.84464112 -1.22686964 0 0 Z " fill="#812F81" transform="translate(714,192)"/>
<path d="M0 0 C-0.34879632 3.25543229 -1.02133261 4.01873107 -3.5625 6.25 C-4.366875 6.8275 -5.17125 7.405 -6 8 C-5.34 9.32 -4.68 10.64 -4 12 C-3.071875 11.319375 -2.14375 10.63875 -1.1875 9.9375 C-0.135625 9.298125 0.91625 8.65875 2 8 C2.99 8.33 3.98 8.66 5 9 C3.07423885 11.43929746 1.19909405 13.80090595 -1 16 C-0.484375 16.598125 0.03125 17.19625 0.5625 17.8125 C1.2740625 18.8953125 1.2740625 18.8953125 2 20 C1.67 20.99 1.34 21.98 1 23 C-3.09457279 21.6351424 -4.71667285 18.78245715 -7.1875 15.4375 C-7.65091797 14.82197266 -8.11433594 14.20644531 -8.59179688 13.57226562 C-9.73423225 12.05294435 -10.86796157 10.52708373 -12 9 C-3.08955224 0 -3.08955224 0 0 0 Z " fill="#F5EFF5" transform="translate(130,67)"/>
<path d="M0 0 C1.75570312 0.01353516 1.75570312 0.01353516 3.546875 0.02734375 C4.43890625 0.03894531 5.3309375 0.05054688 6.25 0.0625 C6.25 1.0525 6.25 2.0425 6.25 3.0625 C3.94 3.0625 1.63 3.0625 -0.75 3.0625 C-0.58628906 3.75730469 -0.42257813 4.45210937 -0.25390625 5.16796875 C0.29095996 8.2977816 0.34738483 11.20048083 0.3125 14.375 C0.30347656 15.44363281 0.29445312 16.51226562 0.28515625 17.61328125 C0.27355469 18.42152344 0.26195312 19.22976562 0.25 20.0625 C-1.07 20.0625 -2.39 20.0625 -3.75 20.0625 C-3.75 14.7825 -3.75 9.5025 -3.75 4.0625 C-6.06 4.0625 -8.37 4.0625 -10.75 4.0625 C-10.75 3.0725 -10.75 2.0825 -10.75 1.0625 C-7.14006828 -0.07230527 -3.7657673 -0.03765767 0 0 Z " fill="#ECE0EC" transform="translate(214.75,36.9375)"/>
<path d="M0 0 C0.33 0 0.66 0 1 0 C0.70722519 5.56272144 -0.31193831 10.08763148 -2.25 15.3125 C-6.539666 27.0638352 -7.9983742 39.70319531 -10 52 C-10.66 52 -11.32 52 -12 52 C-11.94782954 34.0272757 -7.1298285 16.43646305 0 0 Z " fill="#EBDFEB" transform="translate(57,125)"/>
<path d="M0 0 C0 0.99 0 1.98 0 3 C-2 4.6875 -2 4.6875 -4 6 C-3.566875 6.84304688 -3.13375 7.68609375 -2.6875 8.5546875 C-2.130625 9.65039062 -1.57375 10.74609375 -1 11.875 C-0.443125 12.96554687 0.11375 14.05609375 0.6875 15.1796875 C2 18 2 18 2 20 C0.68 20.33 -0.64 20.66 -2 21 C-3.98 16.71 -5.96 12.42 -8 8 C-10.31 8.33 -12.62 8.66 -15 9 C-15 8.01 -15 7.02 -15 6 C-13.06629769 4.99267601 -11.12789694 3.99436712 -9.1875 3 C-8.10855469 2.443125 -7.02960938 1.88625 -5.91796875 1.3125 C-3 0 -3 0 0 0 Z " fill="#F2EAF2" transform="translate(290,316)"/>
<path d="M0 0 C3.05357079 1.61320721 5.23833566 3.03060902 7.375 5.75 C8.82399408 10.96637867 8.70053657 14.64896519 6.25 19.375 C3.04742257 23.11134034 1.49569615 23.83381154 -3.375 24.375 C-7.67080432 23.93060645 -9.67783589 22.70408706 -13 20 C-15.8288298 15.7567553 -15.65268001 11.98265471 -15 7 C-11.33070065 0.70977255 -7.11202755 -0.73572699 0 0 Z M-13 7 C-14.43304064 9.86608129 -14.30644155 11.81300783 -14 15 C-11.7241177 19.22481746 -11.7241177 19.22481746 -8 22 C-3.25383306 22.65271451 -0.01722254 22.69934049 4 19.9375 C6.39441358 16.42070506 7 14.24773336 7 10 C5.42502021 6.35267837 3.55293758 3.82448146 0 2 C-6.39111561 1.18842976 -8.84989293 1.71804555 -13 7 Z " fill="#E8DAE8" transform="translate(714,190)"/>
<path d="M0 0 C4.69564393 3.31457218 7.72469104 7.36279281 11 12 C10.67 12.66 10.34 13.32 10 14 C8.68 13.34 7.36 12.68 6 12 C6 11.34 6 10.68 6 10 C1.17580486 13.13572684 -3.42284316 16.5148552 -8 20 C-8.33 18.68 -8.66 17.36 -9 16 C-7.54712339 14.66072279 -6.08752741 13.32873153 -4.625 12 C-3.81289062 11.2575 -3.00078125 10.515 -2.1640625 9.75 C0 8 0 8 2 8 C1.2265625 6.8553125 1.2265625 6.8553125 0.4375 5.6875 C-0.036875 4.800625 -0.51125 3.91375 -1 3 C-0.67 2.01 -0.34 1.02 0 0 Z " fill="#F3ECF3" transform="translate(103,275)"/>
<path d="M0 0 C4.62 2.31 9.24 4.62 14 7 C14 7.99 14 8.98 14 10 C11.69 9.67 9.38 9.34 7 9 C5.02 12.63 3.04 16.26 1 20 C-0.32 20 -1.64 20 -3 20 C-1.63408831 16.45756548 -0.09068516 13.07372071 1.625 9.6875 C2.07101562 8.80449219 2.51703125 7.92148437 2.9765625 7.01171875 C3.31429688 6.34785156 3.65203125 5.68398438 4 5 C1.525 4.01 1.525 4.01 -1 3 C-0.67 2.01 -0.34 1.02 0 0 Z " fill="#F3ECF3" transform="translate(284,51)"/>
<path d="M0 0 C2.47266124 2.26237627 4.063866 4.57453333 5.6875 7.5 C6.34298828 8.66015625 6.34298828 8.66015625 7.01171875 9.84375 C8 12 8 12 8 15 C7.01 15 6.02 15 5 15 C3.3125 13 3.3125 13 2 11 C1.24074219 11.433125 0.48148437 11.86625 -0.30078125 12.3125 C-1.29464844 12.869375 -2.28851563 13.42625 -3.3125 14 C-4.79169922 14.8353125 -4.79169922 14.8353125 -6.30078125 15.6875 C-9 17 -9 17 -12 17 C-11.84765625 15.203125 -11.84765625 15.203125 -11 13 C-8.49609375 11.296875 -8.49609375 11.296875 -5.4375 9.75 C-4.42558594 9.22921875 -3.41367187 8.7084375 -2.37109375 8.171875 C-1.58863281 7.78515625 -0.80617188 7.3984375 0 7 C-0.66 5.02 -1.32 3.04 -2 1 C-1.34 0.67 -0.68 0.34 0 0 Z " fill="#F4EDF4" transform="translate(351,111)"/>
<path d="M0 0 C4.97209562 1.76429199 9.43438061 4.3939166 14 7 C15.65 4.69 17.3 2.38 19 0 C19.99 0.33 20.98 0.66 22 1 C20.61735163 3.86867231 19.07851447 6.56024032 17.375 9.25 C16.92898438 9.95640625 16.48296875 10.6628125 16.0234375 11.390625 C15.51683594 12.18726563 15.51683594 12.18726563 15 13 C9.36901124 9.99935973 4.11915459 6.81213639 -1 3 C-0.67 2.01 -0.34 1.02 0 0 Z " fill="#F3ECF3" transform="translate(336,273)"/>
<path d="M0 0 C0.99 0.33 1.98 0.66 3 1 C2.54109375 1.969375 2.0821875 2.93875 1.609375 3.9375 C-2.80596891 13.49745966 -5.72212077 22.72255436 -8 33 C-8.65197091 35.6705843 -9.32493514 38.33511512 -10 41 C-10.66 41 -11.32 41 -12 41 C-11.66078236 26.44447945 -5.94189686 13.06808931 0 0 Z " fill="#EADEEA" transform="translate(108,137)"/>
<path d="M0 0 C0.33 0 0.66 0 1 0 C1.22298861 6.5281838 0.39371013 12.52923455 -0.8125 18.9375 C-0.97814453 19.87529297 -1.14378906 20.81308594 -1.31445312 21.77929688 C-3.65544981 34.49135059 -3.65544981 34.49135059 -6 39 C-7.485 39.495 -7.485 39.495 -9 40 C-8.74605469 39.030625 -8.49210937 38.06125 -8.23046875 37.0625 C-5.42027222 26.17658512 -2.96572939 15.25386211 -1.48046875 4.09765625 C-1 1 -1 1 0 0 Z " fill="#EDE1ED" transform="translate(393,209)"/>
<path d="M0 0 C5.33333333 0 10.66666667 0 16 0 C16 2.31 16 4.62 16 7 C12.80097361 7.08886184 10.07322544 6.91058531 7 6 C6.67 4.68 6.34 3.36 6 2 C5.67 3.65 5.34 5.3 5 7 C4.01 7 3.02 7 2 7 C2 5.35 2 3.7 2 2 C1.34 2 0.68 2 0 2 C0 1.34 0 0.68 0 0 Z " fill="#ECE0EC" transform="translate(702,199)"/>
<path d="M0 0 C2.7648665 -0.22417836 4.46277487 -0.32233508 6.875 1.125 C8 3 8 3 8 5.9375 C6.74248376 9.78864348 5.4514926 10.92910444 2 13 C-1.3125 13.75 -1.3125 13.75 -4 14 C-4 13.01 -4 12.02 -4 11 C-2.2984375 10.38125 -2.2984375 10.38125 -0.5625 9.75 C3.09543384 8.43314602 3.09543384 8.43314602 3.9375 5.8125 C3.958125 5.214375 3.97875 4.61625 4 4 C2.68 3.67 1.36 3.34 0 3 C0 2.01 0 1.02 0 0 Z " fill="#EDE3ED" transform="translate(311,311)"/>
<path d="M0 0 C1.11375 1.175625 1.11375 1.175625 2.25 2.375 C4.54433318 4.56504531 6.12158858 5.82731386 9 7 C8.071875 7.433125 7.14375 7.86625 6.1875 8.3125 C3.52815927 9.72038627 1.91894095 10.76123556 0 13 C-0.598125 12.21625 -1.19625 11.4325 -1.8125 10.625 C-3.91085249 7.85425677 -3.91085249 7.85425677 -7 6 C-6.21625 5.7525 -5.4325 5.505 -4.625 5.25 C-1.67682892 3.84610901 -1.0975223 2.99324263 0 0 Z " fill="#F8F3F8" transform="translate(177,258)"/>
<path d="M0 0 C0.33 0.99 0.66 1.98 1 3 C-1.4335567 4.3410005 -3.87135301 5.67294856 -6.3125 7 C-7.00279297 7.3815625 -7.69308594 7.763125 -8.40429688 8.15625 C-13.66015625 11 -13.66015625 11 -17 11 C-17.33 10.01 -17.66 9.02 -18 8 C-15.3773768 6.66180502 -12.75213401 5.3292849 -10.125 4 C-9.00544922 3.42765625 -9.00544922 3.42765625 -7.86328125 2.84375 C-7.14785156 2.4828125 -6.43242188 2.121875 -5.6953125 1.75 C-5.03547363 1.41484375 -4.37563477 1.0796875 -3.69580078 0.734375 C-2 0 -2 0 0 0 Z " fill="#F2EBF2" transform="translate(92,254)"/>
<path d="M0 0 C4.34037775 0.49514018 7.08612375 3.31113872 10.25 6.0625 C10.80429687 6.53494141 11.35859375 7.00738281 11.9296875 7.49414062 C13.291749 8.65658967 14.64659956 9.82747855 16 11 C15.01 11.99 14.02 12.98 13 14 C8.38 10.37 3.76 6.74 -1 3 C-0.67 2.01 -0.34 1.02 0 0 Z " fill="#F3EDF3" transform="translate(331,280)"/>
<path d="M0 0 C3.58513106 1.62184501 6.58992323 3.79256239 9.75 6.125 C11.22726563 7.21167969 11.22726563 7.21167969 12.734375 8.3203125 C13.48203125 8.87460938 14.2296875 9.42890625 15 10 C14.67 11.32 14.34 12.64 14 14 C8.73369981 10.59445921 3.7296807 7.12331138 -1 3 C-0.67 2.01 -0.34 1.02 0 0 Z " fill="#F4EDF4" transform="translate(96,98)"/>
<path d="M0 0 C0.66 0 1.32 0 2 0 C2.9795015 3.74991262 3.95854304 7.49994519 4.9375 11.25 C5.21529297 12.31347656 5.49308594 13.37695312 5.77929688 14.47265625 C6.18051758 16.00986328 6.18051758 16.00986328 6.58984375 17.578125 C6.83597412 18.52075195 7.08210449 19.46337891 7.33569336 20.43457031 C7.90171306 22.62043398 8.45661418 24.80841903 9 27 C8.01 27 7.02 27 6 27 C-0.35559265 9.14381111 -0.35559265 9.14381111 0 0 Z " fill="#EDE2ED" transform="translate(96,209)"/>
<path d="M0 0 C1.65 0.33 3.3 0.66 5 1 C5.80967438 3.91482778 6.21845993 5.46113217 5.0625 8.3125 C4.5365625 9.1478125 4.5365625 9.1478125 4 10 C1.0625 9.1875 1.0625 9.1875 -2 8 C-2.33 7.01 -2.66 6.02 -3 5 C-1.5625 2.3125 -1.5625 2.3125 0 0 Z " fill="#853585" transform="translate(81,129)"/>
<path d="M0 0 C0 0.99 0 1.98 0 3 C-1.00417969 2.73445313 -2.00835937 2.46890625 -3.04296875 2.1953125 C-11.66399306 -0.04462948 -20.15658476 -1.84914459 -29 -3 C-21.38060059 -7.99847578 -8.06010655 -2.46737956 0 0 Z " fill="#E6D7E6" transform="translate(272,25)"/>
<path d="M0 0 C0.9765625 6.0546875 0.9765625 6.0546875 1 8 C0.34 8.66 -0.32 9.32 -1 10 C-3 9.8125 -3 9.8125 -5 9 C-7 6 -7 6 -7 2 C-4.35261084 0.5393715 -3.10551666 0 0 0 Z " fill="#843384" transform="translate(83,241)"/>
<path d="M0 0 C1.11375 0.3403125 1.11375 0.3403125 2.25 0.6875 C2.58 2.3375 2.91 3.9875 3.25 5.6875 C-0.375 8.6875 -0.375 8.6875 -3.75 8.6875 C-4.74 6.7075 -5.73 4.7275 -6.75 2.6875 C-4.29511132 0.41445492 -3.41240272 -0.38777304 0 0 Z " fill="#833283" transform="translate(144.75,61.3125)"/>
<path d="M0 0 C2.875 -0.125 2.875 -0.125 6 0 C8 2 8 2 8.1875 4.5625 C8 7 8 7 7 8 C4.66702567 8.04092937 2.33294775 8.04241723 0 8 C0 5.36 0 2.72 0 0 Z " fill="#843384" transform="translate(209,336)"/>
<path d="M0 0 C2.4375 0.6875 2.4375 0.6875 5 2 C5.875 4.5 5.875 4.5 6 7 C5.67 7.66 5.34 8.32 5 9 C2.75 9.25 2.75 9.25 0 9 C-2.3125 7 -2.3125 7 -4 5 C-2.68 3.35 -1.36 1.7 0 0 Z " fill="#823082" transform="translate(132,308)"/>
<path d="M0 0 C5.75 0.875 5.75 0.875 8 2 C8.042721 3.66611905 8.04063832 5.33382885 8 7 C7 8 7 8 4.0625 8.125 C1 8 1 8 -1 7 C-0.67 4.69 -0.34 2.38 0 0 Z " fill="#823082" transform="translate(172,330)"/>
<path d="M0 0 C3.375 -0.125 3.375 -0.125 7 0 C7.66 0.66 8.32 1.32 9 2 C8.625 4.625 8.625 4.625 8 7 C5.36 7 2.72 7 0 7 C0 4.69 0 2.38 0 0 Z " fill="#812F81" transform="translate(228,41)"/>
<path d="M0 0 C4.95132972 -0.30945811 8.24336137 0.30999361 12.80078125 2.19921875 C16.74555067 3.63559128 20.8740435 4.28133954 25 5 C21.49624442 7.33583705 20.95558684 7.14541953 17 6.375 C11.10232837 5.17814274 5.58082614 3.22369475 0 1 C0 0.67 0 0.34 0 0 Z " fill="#E9DBE9" transform="translate(172,308)"/>
<path d="M0 0 C2.2580605 3.38709075 2.79994908 5.96642159 3.625 9.9375 C3.88539063 11.16339844 4.14578125 12.38929688 4.4140625 13.65234375 C5 17 5 17 5 21 C4.34 21 3.68 21 3 21 C2.30111323 18.25244513 1.6156012 15.50268803 0.9375 12.75 C0.73833984 11.97269531 0.53917969 11.19539062 0.33398438 10.39453125 C0.15029297 9.64042969 -0.03339844 8.88632813 -0.22265625 8.109375 C-0.39547119 7.41811523 -0.56828613 6.72685547 -0.74633789 6.01464844 C-1.03156637 3.74929191 -0.68076195 2.1631688 0 0 Z " fill="#E5D4E5" transform="translate(338,156)"/>
<path d="M0 0 C0.95003906 0.19207031 1.90007812 0.38414063 2.87890625 0.58203125 C5.4375 1.1875 5.4375 1.1875 8.4375 2.1875 C8.7675 3.1775 9.0975 4.1675 9.4375 5.1875 C3.1675 3.8675 -3.1025 2.5475 -9.5625 1.1875 C-5.23741123 -0.97504438 -4.47571375 -0.943858 0 0 Z " fill="#E5D4E5" transform="translate(247.5625,71.8125)"/>
<path d="M0 0 C5.36095277 1.58921525 10.70843973 3.18972938 16 5 C15.67 5.99 15.34 6.98 15 8 C7.575 5.03 7.575 5.03 0 2 C0 1.34 0 0.68 0 0 Z " fill="#ECDFEC" transform="translate(272,26)"/>
<path d="M0 0 C0.433125 0.61875 0.86625 1.2375 1.3125 1.875 C2.99740483 4.2197245 2.99740483 4.2197245 6 6 C5.071875 6.12375 5.071875 6.12375 4.125 6.25 C1.81562433 6.81258459 1.81562433 6.81258459 0.75 9.0625 C0.5025 9.701875 0.255 10.34125 0 11 C-0.28875 10.38125 -0.5775 9.7625 -0.875 9.125 C-1.93720042 6.86674235 -1.93720042 6.86674235 -4 5 C-3.01 4.34 -2.02 3.68 -1 3 C-0.67 2.01 -0.34 1.02 0 0 Z " fill="#F1E5F0" transform="translate(187,270)"/>
<path d="M0 0 C2.97 0.33 5.94 0.66 9 1 C8.1875 3.4375 8.1875 3.4375 7 6 C6.01 6.33 5.02 6.66 4 7 C2.02 3.535 2.02 3.535 0 0 Z " fill="#8F468F" transform="translate(89,114)"/>
<path d="M0 0 C4.15526857 -0.33242149 6.55857236 -0.22487823 10.3125 1.6875 C13.07650505 4.06582992 14.03714243 5.53371274 15 9 C14.01 9.495 14.01 9.495 13 10 C12.566875 9.21625 12.13375 8.4325 11.6875 7.625 C8.74154262 3.04239963 5.05492405 2.33526296 0 1 C0 0.67 0 0.34 0 0 Z " fill="#DAC3DA" transform="translate(707,190)"/>
<path d="M0 0 C0.66 0 1.32 0 2 0 C1.85795259 1.58367747 1.71119847 3.16693318 1.5625 4.75 C1.48128906 5.63171875 1.40007812 6.5134375 1.31640625 7.421875 C1.03761535 9.69350452 0.61209423 11.79851823 0 14 C-0.66 14 -1.32 14 -2 14 C-1.85866501 12.22880197 -1.71176792 10.45804713 -1.5625 8.6875 C-1.48128906 7.70136719 -1.40007812 6.71523437 -1.31640625 5.69921875 C-1 3 -1 3 0 0 Z " fill="#E2CFE2" transform="translate(98,164)"/>
<path d="M0 0 C0.33 0 0.66 0 1 0 C0.5547115 5.27315333 -0.08373163 10.01770224 -2 15 C-2.99 15 -3.98 15 -5 15 C-1.92482916 4.44191344 -1.92482916 4.44191344 0 0 Z " fill="#E5D4E5" transform="translate(57,125)"/>
<path d="M0 0 C-0.33 0.99 -0.66 1.98 -1 3 C-3.3984375 4.01953125 -3.3984375 4.01953125 -6.375 4.8125 C-7.84066406 5.22435547 -7.84066406 5.22435547 -9.3359375 5.64453125 C-12 6 -12 6 -15 4 C-12.87607494 3.3299166 -10.75082476 2.66403203 -8.625 2 C-7.44164062 1.62875 -6.25828125 1.2575 -5.0390625 0.875 C-2 0 -2 0 0 0 Z " fill="#E5D5E5" transform="translate(280,356)"/>
<path d="M0 0 C2.64 0 5.28 0 8 0 C7.34 0.66 6.68 1.32 6 2 C5.35232207 4.57061311 5.35232207 4.57061311 5 7 C4.01 7 3.02 7 2 7 C2 5.35 2 3.7 2 2 C1.34 2 0.68 2 0 2 C0 1.34 0 0.68 0 0 Z " fill="#E1CEE1" transform="translate(702,199)"/>
<path d="M0 0 C0 0.99 0 1.98 0 3 C-2.97 3.66 -5.94 4.32 -9 5 C-8.67 3.68 -8.34 2.36 -8 1 C-5.07175348 0.02391783 -3.04386724 -0.08226668 0 0 Z " fill="#ECE1EC" transform="translate(190,57)"/>
<path d="M0 0 C0.33 0 0.66 0 1 0 C1 2.97 1 5.94 1 9 C-0.98 8.34 -2.96 7.68 -5 7 C-4.19152271 5.83054208 -3.37810888 4.66449539 -2.5625 3.5 C-2.11003906 2.8503125 -1.65757812 2.200625 -1.19140625 1.53125 C-0.79824219 1.0259375 -0.40507812 0.520625 0 0 Z " fill="#883988" transform="translate(272,51)"/>
<path d="M0 0 C1.60433809 0.47859241 3.20846416 0.95789558 4.8125 1.4375 C6.15248047 1.83775391 6.15248047 1.83775391 7.51953125 2.24609375 C9.35473055 2.80387873 11.18033726 3.39344575 13 4 C13 4.66 13 5.32 13 6 C8.15340923 5.40895235 4.39251833 4.02055843 0 2 C0 1.34 0 0.68 0 0 Z " fill="#EFE6EF" transform="translate(153,354)"/>
<path d="M0 0 C0.99 0.33 1.98 0.66 3 1 C1.54712339 2.33927721 0.08752741 3.67126847 -1.375 5 C-2.18710937 5.7425 -2.99921875 6.485 -3.8359375 7.25 C-6 9 -6 9 -8 9 C-6.40758592 4.70048197 -3.64459275 2.60328053 0 0 Z " fill="#F1E8F1" transform="translate(301,284)"/>
<path d="M0 0 C0.66 0 1.32 0 2 0 C2 0.66 2 1.32 2 2 C2.99 2.33 3.98 2.66 5 3 C3.625 5 3.625 5 2 7 C1.34 7 0.68 7 0 7 C0 6.34 0 5.68 0 5 C-0.99 4.67 -1.98 4.34 -3 4 C-2.67 3.34 -2.34 2.68 -2 2 C-1.34 2 -0.68 2 0 2 C0 1.34 0 0.68 0 0 Z " fill="#AC5EA7" transform="translate(243,145)"/>
<path d="M0 0 C2.45823172 3.68734758 3.01242616 6.69699971 4 11 C3.01 11 2.02 11 1 11 C-1.03684712 6.92630576 -1.0257259 4.41062136 0 0 Z " fill="#DFCBDF" transform="translate(101,225)"/>
<path d="M0 0 C0.66 0 1.32 0 2 0 C1.125 7.625 1.125 7.625 0 11 C-0.66 11 -1.32 11 -2 11 C-1.125 3.375 -1.125 3.375 0 0 Z " fill="#E8DAE8" transform="translate(101,153)"/>
<path d="M0 0 C0.66 0.33 1.32 0.66 2 1 C1 4 1 4 -0.875 5.1875 C-3 6 -3 6 -6 6 C-6 5.01 -6 4.02 -6 3 C-4.03533587 1.93224776 -2.03144641 0.93446535 0 0 Z " fill="#EDE3ED" transform="translate(281,319)"/>
<path d="M0 0 C0 0.66 0 1.32 0 2 C-1.4562545 2.67119549 -2.91507867 3.33681807 -4.375 4 C-5.59316406 4.556875 -5.59316406 4.556875 -6.8359375 5.125 C-9 6 -9 6 -11 6 C-11 5.34 -11 4.68 -11 4 C-9.5437455 3.32880451 -8.08492133 2.66318193 -6.625 2 C-5.81289062 1.62875 -5.00078125 1.2575 -4.1640625 0.875 C-2 0 -2 0 0 0 Z " fill="#F0E7F0" transform="translate(174,78)"/>
<path d="M0 0 C-1.38009621 3.33523252 -2.84950652 5.18607951 -6 7 C-6.99 6.67 -7.98 6.34 -9 6 C-7.8803014 4.99406757 -6.7540588 3.9954151 -5.625 3 C-4.68527344 2.1646875 -4.68527344 2.1646875 -3.7265625 1.3125 C-2 0 -2 0 0 0 Z " fill="#EBDFEB" transform="translate(342,318)"/>
<path d="M0 0 C0 0.99 0 1.98 0 3 C-2.64738916 4.4606285 -3.89448334 5 -7 5 C-6.67 3.68 -6.34 2.36 -6 1 C-3.92446352 0.4465236 -2.15634036 0 0 0 Z " fill="#ECE0EC" transform="translate(186,49)"/>
<path d="M0 0 C0.66 0 1.32 0 2 0 C2.33 3.3 2.66 6.6 3 10 C2.34 10 1.68 10 1 10 C-0.1577506 6.52674819 -0.06866652 3.63932552 0 0 Z " fill="#EADDEA" transform="translate(340,167)"/>
<path d="M0 0 C0 0.99 0 1.98 0 3 C-2.31 3.66 -4.62 4.32 -7 5 C-6.67 3.68 -6.34 2.36 -6 1 C-3.92446352 0.4465236 -2.15634036 0 0 0 Z " fill="#F0E7F0" transform="translate(185,41)"/>
<path d="M0 0 C1.65 0 3.3 0 5 0 C5.33 1.32 5.66 2.64 6 4 C3.69 3.67 1.38 3.34 -1 3 C-0.67 2.01 -0.34 1.02 0 0 Z " fill="#ECE0EC" transform="translate(268,325)"/>
<path d="M0 0 C0.99 0 1.98 0 3 0 C2.1875 3.4375 2.1875 3.4375 1 7 C0.01 7.33 -0.98 7.66 -2 8 C-1.34 5.36 -0.68 2.72 0 0 Z " fill="#DFCADF" transform="translate(386,241)"/>
<path d="M0 0 C0.66 0 1.32 0 2 0 C3.32 2.31 4.64 4.62 6 7 C5.01 7 4.02 7 3 7 C0.64276511 4.46815512 0 3.52809907 0 0 Z " fill="#ECE0EC" transform="translate(74,290)"/>
<path d="M0 0 C1.125 1.625 1.125 1.625 2 4 C1.125 7.25 1.125 7.25 0 10 C-1.125 8.375 -1.125 8.375 -2 6 C-1.125 2.75 -1.125 2.75 0 0 Z " fill="#E1CEE1" transform="translate(336,229)"/>
<path d="M0 0 C0.66 0 1.32 0 2 0 C3.32 2.31 4.64 4.62 6 7 C5.01 7 4.02 7 3 7 C0.64276511 4.46815512 0 3.52809907 0 0 Z " fill="#EBDFEB" transform="translate(316,116)"/>
<path d="M0 0 C0 0.66 0 1.32 0 2 C-2.64 2.99 -5.28 3.98 -8 5 C-8 4.01 -8 3.02 -8 2 C-5.09399739 0.74335022 -3.20395416 0 0 0 Z " fill="#EADCEA" transform="translate(182,75)"/>
<path d="M0 0 C-4.1795645 2.78637633 -6.14668677 1.79562512 -11 1 C-6.8204355 -1.78637633 -4.85331323 -0.79562512 0 0 Z " fill="#DEC9DE" transform="translate(197,313)"/>
<path d="M0 0 C0.66 0.33 1.32 0.66 2 1 C1.67 2.65 1.34 4.3 1 6 C-0.32 6.33 -1.64 6.66 -3 7 C-1.125 1.125 -1.125 1.125 0 0 Z " fill="#ECE0EC" transform="translate(356,255)"/>
<path d="M0 0 C0.66 0 1.32 0 2 0 C2.625 3.375 2.625 3.375 3 7 C2.34 7.66 1.68 8.32 1 9 C0.67 6.03 0.34 3.06 0 0 Z " fill="#E0CCE0" transform="translate(96,209)"/>
<path d="M0 0 C2.93200474 2.85276137 5.64315404 5.65079784 8 9 C7.01 9 6.02 9 5 9 C3.61328125 7.5390625 3.61328125 7.5390625 2.3125 5.625 C1.65701172 4.68527344 1.65701172 4.68527344 0.98828125 3.7265625 C0 2 0 2 0 0 Z " fill="#BE82BB" transform="translate(209,185)"/>
<path d="M0 0 C-2.38573379 1.89213369 -4.07175348 3.02391783 -7 4 C-7.66 3.34 -8.32 2.68 -9 2 C-3.375 -1.125 -3.375 -1.125 0 0 Z " fill="#E8D9E8" transform="translate(164,84)"/>
<path d="M0 0 C1.73543126 2.60314689 2.61121812 3.98694043 3 7 C2.34 7.66 1.68 8.32 1 9 C-1.09230769 4.56923077 -1.09230769 4.56923077 -0.625 1.6875 C-0.41875 1.130625 -0.2125 0.57375 0 0 Z " fill="#E6D7E6" transform="translate(57,255)"/>
<path d="M0 0 C1.80411967 2.75924185 2.0127245 3.88972103 1.625 7.25 C1.41875 8.1575 1.2125 9.065 1 10 C-0.80411967 7.24075815 -1.0127245 6.11027897 -0.625 2.75 C-0.41875 1.8425 -0.2125 0.935 0 0 Z " fill="#E0CDE0" transform="translate(389,148)"/>
<path d="M0 0 C1.0326802 2.78823655 1.04509293 3.8677274 0.0625 6.75 C-0.288125 7.4925 -0.63875 8.235 -1 9 C-1.66 8.67 -2.32 8.34 -3 8 C-1.125 1.125 -1.125 1.125 0 0 Z " fill="#EFE6EF" transform="translate(105,145)"/>
<path d="M0 0 C0.99 0.33 1.98 0.66 3 1 C3 1.66 3 2.32 3 3 C1.02 3.66 -0.96 4.32 -3 5 C-2.625 3.0625 -2.625 3.0625 -2 1 C-1.34 0.67 -0.68 0.34 0 0 Z " fill="#ECE0EC" transform="translate(163,47)"/>
<path d="M0 0 C-0.33 0.66 -0.66 1.32 -1 2 C-3.97 1.67 -6.94 1.34 -10 1 C-5.64467851 -1.17766075 -4.53374042 -1.03039555 0 0 Z " fill="#DEC9DE" transform="translate(253,21)"/>
</svg>
